<svg xmlns="http://www.w3.org/2000/svg" width="31" height="30" viewBox="0 0 31 30"><defs><style>.a{fill:#fff;}</style></defs><g transform="translate(15.5 14.985)"><path class="a" d="M31,12.813C31,5.706,24,0,15.5,0S0,5.706,0,12.813,5.5,24.425,13,25.426c.5.1,1.2.3,1.4.8a3.307,3.307,0,0,1,0,1.4l-.2,1.3c-.1.4-.3,1.6,1.3.8s8.9-5.305,12.2-9.109h0A11.518,11.518,0,0,0,31,12.813Zm-21,3.7a.3.3,0,0,1-.3.3H5.2v-.2h0V9.71a.3.3,0,0,1,.3-.3h1a.3.3,0,0,1,.3.3h0v5.406h3a.3.3,0,0,1,.3.3h0Zm2.6,0a.3.3,0,0,1-.3.3h-1a.3.3,0,0,1-.3-.3h0V9.71a.3.3,0,0,1,.3-.3h1.1a.3.3,0,0,1,.3.3h0Zm7.5,0a.3.3,0,0,1-.3.3H18.5l-3.1-4.3v4.1a.3.3,0,0,1-.3.3H14a.3.3,0,0,1-.3-.3h0V9.71a.3.3,0,0,1,.3-.3h1.3l3.1,4.2V9.71a.3.3,0,0,1,.3-.3h1.1a.3.3,0,0,1,.3.3h0Zm6-5.806a.3.3,0,0,1-.3.3h-3v1.2h3a.3.3,0,0,1,.3.3h0v1.1a.3.3,0,0,1-.3.3h-3v1.2h3a.3.3,0,0,1,.3.3h0v1.1a.3.3,0,0,1-.3.3H21.3v-.2h0V9.71h0v-.2h4.6a.3.3,0,0,1,.3.3h0Z" transform="translate(-15.5 -14.985)"/></g></svg>