<svg xmlns="http://www.w3.org/2000/svg" width="30" height="30" viewBox="0 0 30 30"><defs><style>.a{fill:#fff;}</style></defs><g transform="translate(157.25 157.49)"><g transform="translate(-157.25 -157.49)"><path class="a" d="M29.838,0H.172A.172.172,0,0,0,0,.171V24.059a.172.172,0,0,0,.143.171l3.892.7c.62-3.381,1.259-6.886,1.526-8.267.334-1.772.811-5.9,3.539-5.9A5.052,5.052,0,0,1,4.874,7.905,34.657,34.657,0,0,1,3.157,2.981a.162.162,0,0,1,.153-.2H17.771c5.065,0,9.949,3.648,9.281,9.667-.591,5.305-4.045,9.172-8.852,9.172H13.736a.162.162,0,0,0-.162.133L12.763,26.5l3.329.619c1.564.3,4.808.924,5.685,2.781a.172.172,0,0,0,.324-.029,5.186,5.186,0,0,1,2.757-3.429,35.147,35.147,0,0,1,5.017-1.752A.171.171,0,0,0,30,24.525V.171A.172.172,0,0,0,29.838,0Z" transform="translate(0)"/><path class="a" d="M118.505,63.934h-2.232l.362-2.229h1.393a.1.1,0,0,0,.1-.086l.467-2.753a.1.1,0,0,0-.1-.124h-1.374l.324-1.953a.162.162,0,0,0-.134-.19h-2.709a.162.162,0,0,0-.162.133l-.334,2.01h-2.261l.324-1.953a.162.162,0,0,0-.134-.19h-2.709a.162.162,0,0,0-.143.124l-.334,2.019H106.1a.1.1,0,0,0-.1.1,2.859,2.859,0,0,0,2.366,2.819l-.382,2.267H106.1a.1.1,0,0,0-.1.1,2.857,2.857,0,0,0,1.545,2.543l-.382,2.267a.162.162,0,0,0,.134.19h2.709a.162.162,0,0,0,.162-.133l.334-2.01h2.27l-.334,1.962a.162.162,0,0,0,.134.19h2.709a.162.162,0,0,0,.162-.133l.334-2.01h2.261a.1.1,0,0,0,.1-.086l.467-2.753a.1.1,0,0,0-.1-.124Zm-7.507,0,.362-2.229h2.27l-.362,2.229Z" transform="translate(-95.889 -51.209)"/></g></g></svg>