<svg id="圖層_1" data-name="圖層 1" xmlns="http://www.w3.org/2000/svg" xmlns:xlink="http://www.w3.org/1999/xlink" viewBox="0 0 150 480"><defs><style>.cls-1,.cls-13{fill:none;}.cls-2{clip-path:url(#clip-path);}.cls-3{fill:#fff;}.cls-4{fill:#a7a093;}.cls-5{fill:#8c8372;}.cls-6{fill:#c1bcb3;}.cls-7{fill:#efefef;}.cls-8{fill:#dcdcdc;}.cls-9{fill:#acacac;}.cls-10{fill:#656565;}.cls-11{fill:#716651;}.cls-12{fill:#dee0cb;}.cls-13{stroke:#fff;stroke-miterlimit:10;stroke-width:1.05px;}</style><clipPath id="clip-path"><rect class="cls-1" width="150" height="480"/></clipPath></defs><title>shaihai-icon</title><g class="cls-2"><g class="cls-2"><path class="cls-3" d="M32.26,316.45l-.15,0c-4.66,1-8.23-21.17-9.44-24.84a33.49,33.49,0,0,1-2-13.62c.32-3.92,1.48-7.86,1-11.74-.53-4.4-.61-8.88-1.08-13.3-.48-4.58-.13-9.13-.43-13.71-.21-3.12-.87-6.32-1.22-9.44-.23-2-1.54-6.21-.48-8.17,2.78.48,6.3,1.25,9,.34,2.38-.79,4-2,6.66-.66,1.28.63,1,1,1,2.66.18,6.91.43,13.8.36,20.72-.07,7.69-.85,15.38-.55,23.09.29,7.34,3.37,14,2.69,21.43-.32,3.5-1.28,26.2-5.44,27.2"/><path class="cls-4" d="M32.43,241.61c-.07-.26-.32-.47-.37-.73s.09-.56,0-.82-.17-.51-.21-.77-.13-.52-.16-.78,0-.54,0-.8-.31-.52-.32-.78.3-.55.3-.81.09-.53.09-.79-.06-.53-.06-.79.14-.53.15-.79,0-.53,0-.79-.14-.54-.11-.81-.09-.54-.07-.8-.09-.55,0-.82.35-.47.41-.73.16-.51.22-.77.18-.51.22-.76-.22-.58-.2-.83.49-.53.48-.78a2.65,2.65,0,0,0-.26-.81,1.77,1.77,0,0,0-.43-.77c-.19-.15-.61.1-.9,0s-.44-.41-.74-.41-.53.31-.79.32-.54-.38-.81-.36-.51.39-.77.4-.53.11-.79.13-.56-.45-.83-.43-.49.48-.76.5-.55-.37-.82-.35l-.79.06-.79.05c-.27,0-.53,0-.79,0s-.52.43-.78.43-.54.11-.8.11a5.38,5.38,0,0,1-.79-.2c-.26,0-.45-.37-.7-.44s-.54,0-.79-.06-.52,0-.77-.1-.51.05-.77,0-.44-.29-.68-.29-.45.24-.69.27-.54-.4-.77-.36-.42.45-.66.48-.53-.09-.77-.09c.07-.26,0-.59.1-.85s.51-.42.57-.69-.27-.61-.22-.88.2-.5.25-.77,0-.55,0-.81.52-.46.56-.73-.17-.57-.13-.84.36-.5.39-.76,0-.55.07-.82-.31-.57-.29-.84.22-.52.24-.79.11-.54.12-.81-.17-.54-.16-.81-.11-.55-.11-.82,0-.53.05-.8.23-.54.23-.81.09-.54.08-.81,0-.54,0-.81-.33-.53-.34-.8-.07-.54-.08-.8-.05-.62-.05-.85a2.33,2.33,0,0,1,.21-.84c0-.31-.1.08,0,.61.06.25.5.46.56.74s-.07.63,0,.86c.14.45.32.68.47.39a4.87,4.87,0,0,0,.1-.82c0-.22.43-.46.46-.79s-.37-.5-.34-.82,0-.51,0-.8.18-.51.19-.79.25-.51.27-.79-.41-.54-.4-.82.12-.52.13-.79.33-.51.34-.78,0-.54,0-.81.09-.52.1-.79.08-.53.09-.79,0-.54,0-.81,0-.53,0-.8-.13-.54-.12-.81.19-.53.2-.8-.32-.55-.31-.82.25-.53.26-.79,0-.54,0-.8.06-.54.07-.8.17-.54.18-.8-.34-.56-.33-.81.26-.55.27-.79-.19-.6-.19-.8.33-.54.33-.81-.41-.54-.41-.81.32-.55.31-.82-.13-.54-.13-.81-.33-.53-.34-.8.4-.56.4-.83.06-.54.05-.81,0-.54,0-.81-.39-.52-.4-.78.29-.52.28-.78-.2-.52-.21-.78.28-.53.28-.79-.43-.51-.43-.77.12-.52.11-.78.23-.53.22-.79-.16-.52-.17-.78-.09-.52-.1-.78.17-.52.16-.78-.41-.51-.42-.77.19-.53.18-.79.16-.52.16-.78S17,173.27,17,173l0-.78c0-.26-.38-.51-.39-.77s.26-.53.25-.79-.2-.52-.2-.78.35-.52.35-.78-.09-.52-.09-.78-.26-.52-.27-.78-.08-.52-.08-.78,0-.52,0-.78.1-.52.1-.78.34-.52.35-.78-.47-.52-.47-.78.46-.53.46-.79-.44-.51-.45-.77.36-.54.35-.8-.26-.51-.28-.77.09-.53.07-.79.16-.53.14-.79-.44-.49-.46-.75.06-.53,0-.79-.11-.52-.12-.78.09-.53.07-.79.16-.53.14-.79-.17-.51-.18-.77-.17-.52-.19-.78.22-.53.21-.79-.25-.51-.25-.77-.17-.52-.18-.78.37-.53.38-.79-.25-.52-.25-.78.33-.51.34-.77,0-.52,0-.78,0-.52,0-.78.15-.48.19-.74-.28-.56-.23-.82.13-.5.19-.75.45-.4.52-.65-.29-.62-.22-.87.32-.44.4-.68.22-.47.32-.71.05-.53.15-.77.39-.39.5-.62.35-.4.46-.63.14-.51.26-.73.26-.44.39-.66.29-.42.44-.63.1-.58.26-.78.42-.34.59-.53.54-.22.71-.42.13-.57.3-.77.2-.51.36-.7.7-.11.86-.31.18-.54.36-.74.24-.51.43-.71.59-.17.78-.35.41-.35.61-.52.35-.42.56-.58.29-.52.51-.68.65,0,.88-.14.25-.62.48-.76.61,0,.85-.14.35-.5.59-.62.53-.15.78-.25.45-.35.7-.44.52-.21.78-.28.66.31.92.23.52-.19.77-.27.5-.24.75-.33.38-.53.63-.63.55-.09.8-.19.44-.33.69-.44.55-.09.79-.2.55-.08.8-.2l.72-.36c.25-.11.46-.29.71-.41s.39-.42.64-.53l.75-.35c.24-.1.66.2.89.09s.4-.39.63-.5.59,0,.83-.08.36-.46.6-.57.43-.3.66-.41l.72-.32.71-.31c.24-.11.54-.07.78-.18s.41-.35.65-.46.51-.09.75-.19.37-.47.61-.56.51-.1.76-.18.54,0,.79-.08l.72-.26c.25-.08.57,0,.81,0s.39-.42.62-.52.54-.08.77-.2a6.59,6.59,0,0,0,.73-.3c.22-.13.44-.29.65-.44s.28-.49.47-.66.46-.58.63-.79c0,.27,0,.77,0,1s.21.51.25.78-.41.62-.36.89.4.47.47.74.31.47.39.73-.19.63-.1.89.25.49.34.74.3.47.4.73,0,.58.13.83l.33.75c.11.25.54.36.65.61s.11.55.23.8,0,.61.09.86.57.33.68.58,0,.55.14.81.16.5.26.76-.06.58,0,.83.64.33.74.59-.22.64-.12.89.55.37.65.62-.07.6,0,.85.06.55.15.8.34.45.43.7.09.55.18.79.38.44.48.67.35.44.46.67.21.52.32.77.16.54.27.78,0,.6.13.84.34.46.45.71.31.47.41.72,0,.58.15.83.31.45.42.71.25.47.37.73.13.54.25.79.1.56.22.81.51.37.63.61.31.46.43.7.08.57.19.81.29.48.4.72,0,.6.12.84.41.42.52.67.08.55.19.8.23.49.33.74.1.53.21.79.43.4.53.66.3.46.4.72.19.5.28.76-.2.65-.1.91.33.45.43.72.34.42.42.67,0,.54.1.79.14.5.22.74.1.51.18.76.07.53.16.77.27.46.36.71.36.42.46.66.28.44.38.68.19.48.31.71,0,.58.16.8.18.52.32.73.52.52.69.72c.08-.24-.13-.8,0-1s.52-.35.62-.59,0-.58.09-.81.4-.38.52-.61,0-.58.13-.8.4-.38.52-.61.29-.42.41-.65.38-.39.49-.62.3-.44.4-.67-.1-.61,0-.85.31-.44.39-.68.26-.47.34-.72-.07-.59,0-.84.13-.51.22-.76.36-.44.44-.69.36-.44.45-.69-.24-.64-.16-.89.44-.41.53-.67.32-.44.41-.7,0-.55.08-.8.28-.47.36-.72.2-.49.28-.75-.21-.63-.12-.88.48-.39.56-.64.11-.53.2-.78,0-.54.13-.79.44-.41.52-.66,0-.58,0-.83.28-.46.37-.71,0-.57.07-.82.48-.39.56-.64l.27-.75c.08-.25,0-.56.06-.81s.13-.51.21-.77.23-.48.31-.73.06-.53.13-.78.13-.52.21-.77.33-.45.41-.7-.19-.61-.11-.86.55-.39.63-.64-.15-.6-.07-.85.4-.43.48-.68,0-.55.08-.8.42-.42.5-.67,0-.57,0-.83.25-.47.33-.72-.14-.61-.06-.86.22-.48.31-.73.48-.39.57-.63,0-.55.14-.8.25-.49.36-.75.15-.54.26-.78.33-.46.45-.71.16-.54.28-.78.28-.48.41-.72.51-.35.64-.59.11-.57.24-.81.2-.52.33-.76.45-.38.58-.63.14-.55.26-.79a7.73,7.73,0,0,0,.16-.81,7.77,7.77,0,0,0,.35-.71,7.08,7.08,0,0,0,.28-.77c0-.26.09-.53.12-.79s-.33-.55-.32-.82.43-.52.43-.79,0-.53,0-.79.1-.54.09-.81-.51-.51-.52-.78.07-.5,0-.75.16-.52.16-.77a2.88,2.88,0,0,1,.14-.71,1.67,1.67,0,0,1,.15-.65c.22.15.49.12.7.27s.33.44.52.61.53.23.71.41.17.56.34.76.41.34.56.55.26.46.4.68.29.44.42.67.45.35.58.58-.06.62.06.85.34.42.46.65.1.53.22.76.18.49.29.73l.32.72c.11.24.19.49.3.73s.33.43.45.66.18.5.3.73.19.5.31.73.66.23.79.45,0,.61.17.82.56.24.72.45-.08.73.09.93.61.09.79.3.11.54.28.73.54.17.71.33a1.67,1.67,0,0,0,.56.33,1.38,1.38,0,0,0,.62.14c.24,0,.49.33.73.32a4.81,4.81,0,0,1,.71.11,6.78,6.78,0,0,1,.79,0c.27.06.49.2.75.28s.63-.19.89-.1.53.11.79.2.46.31.7.41.5.2.74.3.36.52.6.62.51.15.75.26.45.28.69.4.68-.18.92-.06.32.54.55.66.61,0,.84.13.3.55.53.68.57.08.8.21l.69.4c.23.14.47.26.69.4s.41.35.63.5.6,0,.83.19.33.47.56.61.33.46.55.6.58.11.79.26.4.35.62.5.41.32.63.46.5.17.74.31.53.1.76.23.31.51.55.63.48.21.71.34.39.37.62.5.42.31.65.44.48.21.7.35.66,0,.88.11.34.44.55.6.26.51.45.68.31.42.49.61.6.16.76.37.17.52.3.74a5,5,0,0,1,.34.7c.1.24.32.44.38.7s.27.46.33.7.08.5.13.75-.15.55-.09.79.28.46.33.7-.19.56-.13.81,0,.5.11.75.57.39.62.63-.13.55-.07.8-.06.53,0,.78.34.46.4.72.11.51.16.77,0,.54,0,.8.35.49.38.75,0,.54,0,.8-.14.55-.12.81.37.5.4.76-.26.56-.24.82,0,.53.06.8.4.49.43.75-.32.57-.29.83,0,.53.07.79.42.49.45.75-.18.57-.16.83.24.52.26.79-.19.55-.18.82.16.52.17.79-.07.54-.05.81.22.53.23.8-.28.54-.27.81.07.53.07.8.18.53.18.8.15.53.15.8-.14.53-.14.8,0,.53,0,.8-.24.53-.23.8.28.53.28.8-.31.53-.31.8,0,.54,0,.8.23.54.24.8.08.54.08.81.18.53.19.8-.09.54-.08.81-.09.53-.08.79.26.51.28.77-.17.54-.15.8,0,.52,0,.79.1.52.12.78.22.51.24.77-.24.54-.23.8.13.52.14.78,0,.53,0,.79.15.52.16.78-.32.54-.3.81,0,.52,0,.78,0,.52,0,.79.45.5.46.76-.31.51-.29.81.11.5.12.78.31.51.31.79-.12.52-.12.8-.1.52-.1.79.12.53.12.8-.07.53-.07.8,0,.52,0,.79.14.53.14.79-.14.53-.14.8.2.53.2.8,0,.53,0,.79-.28.53-.29.8-.12.53-.12.79.14.54.14.81,0,.53,0,.8.22.54.22.8-.45.54-.45.8.07.54.07.81.12.54.12.8-.22.54-.22.8,0,.54,0,.8.26.54.26.8-.08.54-.08.8.3.54.29.8-.3.54-.3.8.06.54,0,.79.23.55.23.8-.38.56-.38.79.38.6.38.79c0,.59,0,.49,0,0,0-.2-.49-.5-.48-.81s.22-.51.23-.78.14-.53.16-.79-.11-.57-.08-.81.33-.55.38-.74c.1-.35.12-.42.28.1a7.18,7.18,0,0,1,.25.75,4.43,4.43,0,0,0,0,.91c.07.28,0,.6.1.89s.23.62.17.81a2.63,2.63,0,0,1-.35.66,4.57,4.57,0,0,1-.43.65c-.19.17-.51.18-.72.34s-.25.56-.47.7-.61,0-.83.11-.29.58-.51.69-.6,0-.82.11-.38.44-.58.54a5.72,5.72,0,0,1-.76.3c-.24.09-.48.22-.74.3s-.59-.1-.84,0-.54.1-.78.2-.38.44-.6.58a3.15,3.15,0,0,0-.52.57,2.53,2.53,0,0,0-.32.66c-.09.21-.63.38-.64.71s.42.56.44.85-.11.59-.08.86-.16.62-.16.84.43.58.42.87-.36.58-.37.87.2.58.2.87-.09.58-.08.87-.16.58-.14.87.4.5.42.76-.27.53-.26.79.41.5.42.76-.42.54-.4.8.26.51.28.77-.2.53-.19.79.29.5.3.76,0,.53,0,.79,0,.52,0,.78.09.52.09.78-.11.52-.12.78-.21.51-.21.78.25.52.25.79-.13.52-.12.79,0,.52.06.78-.26.53-.26.79,0,.52,0,.79.25.52.25.78-.06.53-.06.79-.15.52-.16.78.42.56.41.82-.31.51-.33.77-.18.51-.21.77,0,.52-.09.78.22.59.16.84-.5.42-.57.67.2.63.11.88-.39.42-.5.66-.41.37-.54.59-.08.58-.24.79-.46.3-.64.5-.15.61-.35.79-.48.27-.7.42-.63-.11-.86,0-.39.44-.64.48a5,5,0,0,1-.77,0,6.32,6.32,0,0,1-.75-.06c-.26,0-.54.11-.79.06s-.52,0-.77,0-.46-.31-.7-.36-.52.12-.76.12-.56-.35-.81-.3a6.85,6.85,0,0,0-.71.37c-.23.09-.37.41-.61.53s-.45.23-.7.34-.57-.09-.83,0-.51.07-.77.13-.51,0-.77.06-.48.25-.74.28-.51,0-.77,0-.52.26-.78.26-.52-.25-.78-.27-.54.15-.79.12-.49-.27-.74-.32-.59.14-.83.06a7.2,7.2,0,0,1-.7-.42c-.23-.11-.38-.39-.61-.52s-.53-.13-.75-.27-.49-.21-.71-.36-.29-.51-.51-.65-.67.08-.89,0-.37-.39-.61-.51-.48-.11-.71-.2-.38-.41-.62-.48-.43-.35-.67-.41-.58.3-.83.26-.48-.13-.72-.17-.47-.33-.72-.36l-.75,0c-.25,0-.52.28-.77.26s-.52-.31-.78-.32-.54,0-.81,0-.53-.05-.8-.06-.54.15-.8.15-.54-.05-.8-.05-.54-.23-.81-.22-.53.25-.8.26-.54-.19-.81-.18-.53.09-.8.1-.52.21-.79.23-.54-.17-.81-.15-.53.1-.79.12-.55-.18-.82-.16-.52.21-.79.23-.51.25-.78.27-.55-.16-.81-.14-.51.32-.78.34-.53.09-.8.11-.57-.45-.84-.43l-.79.08c-.27,0-.51.41-.77.43l-.8,0c-.26,0-.55-.28-.81-.26s-.52.26-.79.28-.55-.28-.81-.27-.52.24-.78.26-.54-.14-.81-.12-.52.13-.79.15-.54-.07-.8-.05-.52.11-.79.13-.51.21-.78.23-.54-.06-.8,0-.52.13-.79.15-.5.3-.77.32-.52.09-.78.11l-.79.08c-.27,0-.57-.31-.83-.29s-.5.34-.76.37-.56-.23-.83-.2-.53,0-.79.06-.48.41-.75.44-.53,0-.79.07-.54-.05-.8,0-.57-.21-.84-.17-.52.13-.78.17-.52.11-.79.15-.53,0-.79.07-.49.31-.75.36-.48.33-.74.37-.54,0-.8.09-.59-.24-.85-.19-.46.44-.72.48-.58-.2-.84-.16-.48.38-.75.43-.58-.26-.84-.22-.47.48-.73.52-.55,0-.81,0-.54,0-.81.06-.51.17-.78.2-.57-.35-.83-.32-.5.42-.77.44-.54-.15-.81-.14-.53-.08-.8-.07-.53.21-.8.21-.53-.23-.79-.23-.52.19-.75.19-.5.27-.73.28-.55-.49-.79-.46-.48.21-.72.26a6.77,6.77,0,0,0-.76.08c-.22.07-.43.26-.68.36l-.68.32c-.25.12-.38.48-.61.56s-.62-.16-.85-.1a4.43,4.43,0,0,1-.73.14,2.5,2.5,0,0,1-.75.06,2.07,2.07,0,0,1-.71-.25c-.2-.15-.19-.46-.34-.69s-.71-.18-.81-.43a6.27,6.27,0,0,1-.17-.8c-.06-.24.29-.58.24-.85s-.53-.44-.56-.7.24-.55.22-.81-.16-.51-.19-.77,0-.52,0-.78-.3-.5-.32-.76,0-.52-.06-.77.07-.54,0-.79.05-.55,0-.79"/><path class="cls-5" d="M102.55,12.46a4.12,4.12,0,0,0,1.33-3.84c-.13-1.45-.31-1.85-1.72-2.07-2-.31-4-.13-5.94-.33a51.94,51.94,0,0,1-5.35-.9A67.8,67.8,0,0,0,78.4,4q-9.33-.13-18.68-.22c-2.79,0-5.58,0-8.37-.05-1.54,0-2.91,0-2.71,1.94"/><path d="M43.77,433.5a3.55,3.55,0,0,1,4.39-2c1.87.44,3.48,1.64,5.35,2.06s2.38-.15,3.87-.9c2.52-1.27,7-3.33,9.21-.76s2.81,6.33,2.7,9.59c-.17,4.88-3,7.87-5.77,11.52-3.29,4.29-4.3,9.73-7.39,14.17a26.62,26.62,0,0,1-13.24,10.28c-4.65,1.57-11.54,3.28-16.36,1.27A5.89,5.89,0,0,1,23,475.18c-1.06-3.37-1.7-7.36,0-10.62s4.91-5.77,6.82-9c2.6-4.43,5.38-8.76,8.23-13,1.65-2.46,4-4.61,5-7.43a13.65,13.65,0,0,1,.72-1.59"/><path d="M91.67,430.6c1.67-.71,3.88-.6,5.6-.89,4.89-.83,9.84-2.67,14.17.79,4.74,3.79,6.53,10.78,9.09,16.07,1.51,3.13,3.74,5.8,5.71,8.65,2.47,3.59,4.44,7.87,3.68,12.3-.3,1.7-.36,2.64-1.95,3.38-2.84,1.31-7.76.79-10.83.67a47.51,47.51,0,0,1-8.13-1.14c-2.27-.49-5.13-.76-7.25-1.73-2.83-1.31-3.94-5-5.2-7.7-1.19-2.52-2.94-4.13-4.78-6.14-1.25-1.36-3.29-2.82-4.17-4.39-1.61-2.9-1-7.9-.43-11,.53-2.75,1.22-6.79,3.74-8.5a4.46,4.46,0,0,1,.75-.4"/><path class="cls-6" d="M111.65,242.31c7.07.72,7.35,3.39,7.36,9.65,0,2.73,0,5.41.14,8.14a23.47,23.47,0,0,0,.81,4.17c.63,2.94.38,6,.69,9a34,34,0,0,1,.37,7.05c-.22,2.08-.19,4.11-.24,6.2-.07,3.15-.56,6.26-.55,9.4,0,4.17.31,36.83.79,40.93.52,4.46.4-1.48.09,3-.48,7.12-1.62,27.25-2.7,34.3a167.75,167.75,0,0,0-1.71,18.24c-.1,2.45-.32,4.95-.19,7.41s.75-5.55.67-3c-.23,7.76-1.29-5.35-3,2.21q-1.29,5.65-3.07,11.18a33.76,33.76,0,0,0-1.45,10.17c0,1.77-.32,3.47-.51,5.23-.13,1.16.11,3.38-.59,4.44-1.61,2.4-6.42,1.65-8.77,1.8-2.75.17-6.18,1-8.88.09-2.88-.93-2.35-5.5-2.08-7.81.49-4.16-.93-8.16-.92-12.38,0-2.2-.41-4.26-.42-6.44,0-2.88-.16-5.76-.28-8.64-.17-4.06-.62,12.87-1.13,8.9-.57-4.33-.14-8.67-1-13-.79-4-1.33,2.47-2-1.54-.62-3.53,1.77-27.29,1.4-30.82s-1,12.82-1.24,9.17c-.31-6.24-1.31-24.9-2.19-31.23-.51-3.7,1.16,3.71.53,0-.17-1-2.29-43.34-3.34-43.9-2.44-1.3-5.27,42.8-5.36,44-.57,8.34-1.31,5.94-2.43,14.27-1.1,8.16.49,18.89.45,27.15-.06,8.8.69,17.67,0,26.46-.49,5.87-1.47-9.11-2-3.22-.59,6.53-3,12.65-3.61,19.19-.29,3.07.59,7.28-.4,10.22s-3.46,2.39-7,2.54c-5.55.23-7.27.53-12.33-2.33-6.93-3.93-6.26-19.35-6.83-25.82-1.18-13.51-4.59,4.56-5-9C33.22,380.18,32,349.52,32,332c0-11.8,0-41.22.34-53,.23-8.56,1.87-17.12,1-25.63-.23-2.31-2-3.92-.19-5.06,3-1.86,10.2-.67,13.73-1.2,4.29-.64,8.57-1.31,12.86-1.94,17.14-2.53,34.54-4.61,51.86-2.85"/><path class="cls-7" d="M90.56,117.57c0,.25-.31.49-.33.74s.11.54.08.79-.36.48-.4.74.27.55.24.81,0,.52-.07.77,0,.53,0,.78-.21.5-.24.75.08.54,0,.8-.51.45-.54.71.18.54.14.8-.32.48-.36.74,0,.53,0,.78-.18.5-.22.76.25.56.21.81,0,.53,0,.78-.43.47-.46.72.22.56.18.81-.09.51-.12.77-.38.47-.41.73,0,.54,0,.8,0,.54-.06.8.19.57.14.83-.14.52-.2.78-.27.49-.32.75-.11.52-.18.77-.39.45-.46.71.06.56,0,.81-.08.53-.15.78.06.58,0,.83-.59.37-.67.63.25.63.16.89-.33.44-.42.69-.12.52-.21.77-.52.37-.61.62,0,.57-.09.81,0,.55-.14.8-.07.54-.17.78-.41.41-.51.65-.23.48-.33.73-.29.45-.4.69-.12.52-.22.76,0,.57-.11.81-.17.5-.27.75-.2.49-.31.73-.4.41-.5.65-.42.4-.52.64,0,.58-.1.83,0,.58-.09.83-.35.39-.45.67-.31.44-.4.72,0,.56,0,.82-.27.47-.35.73-.13.52-.21.78-.2.49-.29.75-.26.47-.35.73-.19.49-.28.75.25.65.15.9-.45.41-.55.66-.35.43-.45.68,0,.56-.16.8-.16.52-.28.76-.17.52-.3.76-.3.45-.44.67-.53.3-.68.51a6.07,6.07,0,0,1-.47.63c-.17.21-.12.62-.31.8s-.59.11-.81.26-.23.7-.47.8-.61-.15-.88-.11a3.35,3.35,0,0,1-.76-.05A2.07,2.07,0,0,1,72,168a4.55,4.55,0,0,1-.65-.43c-.21-.15-.51-.2-.72-.38s-.33-.42-.52-.62-.4-.35-.58-.55-.49-.29-.66-.5-.2-.53-.36-.74-.56-.26-.72-.47-.24-.51-.39-.72-.25-.5-.39-.71-.17-.56-.28-.76-.33-.4-.45-.63-.2-.47-.3-.71-.4-.38-.5-.62.06-.57,0-.81-.06-.52-.15-.76-.4-.41-.48-.65.09-.56,0-.81-.27-.45-.34-.69-.2-.48-.26-.73-.24-.47-.31-.72,0-.53,0-.78-.27-.46-.33-.71-.23-.47-.29-.72,0-.52-.09-.77.1-.55,0-.79-.5-.42-.57-.68-.1-.52-.18-.78.12-.6,0-.85-.29-.47-.37-.73-.28-.47-.36-.73,0-.57-.06-.82-.41-.43-.49-.69.26-.65.18-.9-.5-.4-.59-.66-.11-.53-.19-.78-.13-.52-.21-.78-.21-.49-.29-.75-.19-.5-.27-.76-.12-.52-.19-.78-.21-.5-.27-.76,0-.56-.06-.82.06-.56,0-.82-.56-.43-.61-.69-.07-.54-.11-.8-.11-.53-.15-.79,0-.54,0-.8.24-.57.2-.84-.43-.46-.49-.72.35-.62.28-.87-.59-.37-.68-.63.2-.65.09-.89a7.51,7.51,0,0,0-.5-.65c-.13-.22-.47-.32-.6-.54s0-.59-.15-.81-.46-.34-.58-.57-.34-.41-.46-.64.12-.63,0-.86-.45-.39-.53-.63.15-.58.1-.83-.32-.46-.34-.72.18-.51.19-.77-.38-.56-.34-.81a4.78,4.78,0,0,1,.3-.74c.07-.24.5-.35.6-.59s0-.54.13-.77.06-.55.19-.77.21-.47.33-.69.24-.45.36-.67.39-.37.5-.6.26-.44.35-.68.38-.43.44-.68a6.34,6.34,0,0,0,.13-.78c0-.27-.22-.56-.2-.82s0-.54,0-.81.24-.52.25-.79-.13-.54-.13-.8-.12-.54-.11-.81.4-.52.4-.79-.21-.54-.2-.81,0-.53,0-.8.15-.52.19-.79,0-.54,0-.81.12-.52.18-.78,0-.54.09-.74a1.75,1.75,0,0,1,.32-.73c.13-.14.55.1.84,0s.39-.27.67-.29a5.87,5.87,0,0,1,.76.14c.25,0,.52-.11.79-.07s.46.28.72.34.59-.22.85-.15l.76.22c.26.08.44.4.68.48s.62-.19.85-.12.49.32.71.38.55-.08.8,0,.48.18.73.24.43.45.68.5.54-.05.79,0,.54-.17.79-.13.48.22.74.25.5,0,.76,0,.5.22.76.22.51-.05.77-.06.5,0,.76-.07.51,0,.77-.06.55.14.8.08.44-.38.69-.45.57,0,.82-.07.51-.18.75-.29.52-.18.76-.29.43-.33.66-.46.45-.29.67-.42.31-.52.54-.65.46-.26.69-.39.46-.27.7-.39.63.1.9,0,.35-.58.63-.68.57,0,.84-.09.54-.11.81-.17.57.06.84,0,.53-.18.8-.2.56-.3.83-.29a5.49,5.49,0,0,1,.82.22,3.85,3.85,0,0,1,.79.26c.26.12.65.09.86.27s0,.71.14,1a2.61,2.61,0,0,1,.34.69,6,6,0,0,1,.28.78c0,.27.26.54.27.83s-.1.56-.1.84-.31.56-.32.83.12.58.11.85a8.07,8.07,0,0,0,.17.83c0,.27-.17.53-.18.79s-.14.53-.14.79.28.54.27.8-.3.52-.31.78.19.54.18.8.08.54.06.8-.31.51-.33.77-.08.52-.11.78.3.56.28.83"/><path class="cls-4" d="M77.53,340.38c-.22-5.6.48-12.09.77-17.62.3-5.78-1.74-27.9-2.84-33.54-5.15,5-7.14,44-7.62,50.93-.58,8.33-1.32,19-2.44,27.33-1.1,8.17.5,16.32.45,24.58-.06,8.81.69,7.17,0,16-.49,5.87-1.47-9.11-2-3.22-.8,8.86-3.75,17.37-3.78,26.3a8.93,8.93,0,0,1,.12,2.08c-.45.68-3.24.48-4,.54-1.76.13-4.1.59-5.81.18-2-.47-3.53-1.32-5.67-1.39-1.69-.07-2.22.7-3.58,1.21A75.56,75.56,0,0,1,36.77,420c-2.08-11.25-1.87-1.86-4.48-13.08-2.42-10.38-2.32-20.3-2.72-30.82-.3-8.08-1.37-18.59-1.36-26.7,0-18.31,2.11-53.79,3.11-72,.41-7.4-.67-14.79.37-22.2.58-4.19.92-7.24,5.41-6.9,6,.46,11.54-.38,17.69-1.28,17.13-2.53,34.53-4.61,51.85-2.85,14.71,1.49,8.62,24.54,7.51,33.94-1,8.22-1.45,32.64-1.09,40.86.31,7.07-.34,15-.35,22.1,0,6.52.46,25.92.87,32.35.42,6.69-1.6,14-1.89,20.81-.1,2.45-.32,4.95-.19,7.41s.75-5.55.67-3c-.23,7.76-1.29-5.35-3,2.21q-1.29,5.65-3.07,11.18a34.1,34.1,0,0,0-1.45,10.18c0,1.76-.32,3.46-.51,5.22-.13,1.16.11,3.38-.59,4.44-1.66,2.48-5.46,1.57-7.92,1.78-3.38.28-7.44,1.85-9.32-1.23S85,422.73,84.67,419.3c-.38-4.67-.58-9.35-.79-14-.52-11.51-2.18-2-3.33-13.44-1.63-16.24-2.4-35.15-3-51.45"/><path class="cls-3" d="M128.61,280.42c.07,1.36-.48,2.55-.56,3.89-.1,1.8-.1,3.6-.08,5.39,0,3.51.18,7,0,10.54-.26,4.29-.86,9.6-3.93,12.88-1.09,1.16-1.75,1.67-3,.66a6.52,6.52,0,0,1-2.22-5.43,64,64,0,0,1,.46-10.64c1.08-6.44.88-13.3.81-19.81-.05-4.55.47-9.11.3-13.69-.14-3.64-.3-7.18-.76-10.81-.14-1.07-.17-2.15-.27-3.23a16.24,16.24,0,0,1-.42-2.79c.15-1.22,1.43-.82,2.44-1.53,2-1.39,3.13-4.21,3.73-6.46s.38-4.33.49-6.61c.15-3.48.43-6.95.44-10.46,0-3-.79-5.7-1-8.61,1-.5,2.44-.35,3.59-.64a5.35,5.35,0,0,1,1.63-.31c.21,0-.66,4.49-.68,4.89-.13,2.29-.19,4.6-.3,6.9-.5,10.61-1,21.12-1,31.74,0,8.09,0,16.06.44,24.13"/><path class="cls-8" d="M68.3,111.21a5.63,5.63,0,0,1-.92,0c-.3-.08-.7.09-1,0s-.51-.39-.8-.5-.58-.18-.87-.27-.54-.37-.84-.42-.67-.06-1-.12a6.65,6.65,0,0,1-.93-.22,4.84,4.84,0,0,1-.84-.44c-.25-.15-.33-.53-.61-.76s-.72-.19-1-.39-.41-.57-.68-.77l-.8-.61c-.26-.21-.48-.46-.73-.68s-.59-.38-.86-.59-.54-.42-.8-.65-.73-.24-1-.5a6,6,0,0,1-.63-.85,9.67,9.67,0,0,1-.5-.89c-.14-.3.12-.77,0-1.09s-.65-.46-.77-.78,0-.69-.17-1-.23-.64-.38-.93-.12-.69-.26-1-.38-.57-.51-.88-.56-.49-.71-.79-.17-.67-.33-1a1.67,1.67,0,0,0-.62-.69c-.24-.15-.59,0-.94-.1s-.46-.7-.77-.76-.62,0-.93-.11-.64,0-.94,0-.68.07-1,0a5.73,5.73,0,0,1-.82-.49c-.28-.14-.34-.57-.58-.77s-.48-.23-.64-.43-.47-.31-.64-.51-.19-.54-.39-.72-.33-.48-.55-.65-.64-.08-.86-.25-.24-.59-.45-.77-.58-.16-.79-.34-.55-.32-.76-.52-.23-.64-.43-.86a7.25,7.25,0,0,1-.54-.7,4.71,4.71,0,0,1-.55-.7c-.14-.26-.46-.44-.57-.75s0-.71-.12-1-.31-.61-.41-.93-.27-.63-.36-1-.06-.68-.13-1-.42-.53-.47-.84.26-.66.22-1,0-.6,0-.91-.09-.59-.09-.9.16-.58.19-.88a8.28,8.28,0,0,1,.12-.87c.07-.3,0-.63.09-.91a5.06,5.06,0,0,1,.3-.88c.16-.25.24-.64.46-.85s.79-.26,1.08-.34a2.55,2.55,0,0,1,1,0c.34,0,.67.19,1,.23s.63-.3,1-.38.79.22,1,0a2.89,2.89,0,0,0,.53-.82,4.36,4.36,0,0,0,.44-.83c.08-.28-.32-.67-.27-1s.45-.54.48-.84-.3-.63-.28-.92.48-.56.51-.85-.33-.66-.28-.94,0-.61.09-.92.65-.48.72-.78-.32-.71-.24-1,.61-.45.71-.74.2-.56.32-.84a7.4,7.4,0,0,1,.39-.8,7.29,7.29,0,0,1,.49-.74c.18-.24,0-.77.25-1a9,9,0,0,1,.62-.7,4.92,4.92,0,0,1,.86-.38c.29-.14.67.06.94,0a2.65,2.65,0,0,1,.85-.16,2.75,2.75,0,0,1,.89.21,4.49,4.49,0,0,1,.86.41c.2.19.22.62.41.86s.56.34.72.6-.13.78,0,1.06.66.34.79.63.13.61.25.89.35.52.46.82-.21.71-.11,1,.63.43.72.73.09.61.17.91.29.56.37.85-.32.72-.24,1,.43.53.5.83-.18.67-.12,1,.17.59.23.88.53.53.59.82-.07.65,0,.94.05.63.1.92.34.57.4.85.27.6.32.87.12.67.17.87-.07.68,0,1,.09.63.18.93.16.61.26.91.53.49.63.78.26.58.36.87.24.58.36.87,0,.67.13,1,0,.69.13,1,.65.39.79.67.06.67.21.95.35.52.51.8.39.49.55.76,0,.76.16,1,.72.28.9.54.39.48.58.73.25.6.45.84.21.65.42.89.78.14,1,.37.36.51.59.73.25.68.49.88.54.36.79.55.46.45.72.63.5.41.77.58.57.31.84.46.56.32.85.46.64.13.93.26.52.42.82.53.72-.13,1,0,.53.42.84.5.62.14.93.21.62.16.94.21.62.25.94.27.65-.37,1-.36.64.26,1,.24.59-.27.89-.3.66.29,1,.25.55-.52.85-.57.67.25,1,.19.57-.26.86-.34.49-.49.77-.58.73.24,1,.14.61-.15.88-.28.56-.28.83-.42.32-.67.59-.82.69,0,1-.19.39-.51.64-.69.69-.08.94-.27.26-.73.52-.88a7.35,7.35,0,0,1,.91-.28c.28-.12.65,0,.95,0a8,8,0,0,1,.85-.36c.3,0,.59-.16.9-.18s.61.18.92.19.63-.42,1-.4.65.32.91.41.45.44.63.65a1.18,1.18,0,0,1,.31.77,2.8,2.8,0,0,1-.1.88c-.07.29.21.72.08,1s-.53.43-.69.72-.12.65-.29.92-.68.3-.86.56-.29.56-.47.81-.16.68-.34.92-.33.56-.52.79l-.6.73c-.25.3-.54.47-.68.64s-.68.2-.88.42,0,.8-.23,1-.78.07-1,.28-.09.76-.31,1-.72.1-.94.31-.28.59-.51.78-.54.29-.78.48-.59.2-.83.38-.22.72-.46.89-.56.25-.82.41-.46.4-.71.55-.59.19-.85.34-.63.09-.9.23-.46.41-.73.54-.48.4-.75.52-.65,0-.93.09-.47.45-.75.55-.52.37-.81.45-.76-.19-1.07-.09-.54.49-.85.59-.73-.12-1,0-.61.19-.94.26-.61.22-.94.26-.61,0-.92,0-.61.43-.92.43-.62,0-.93,0-.59-.42-.9-.44-.67.44-1,.41-.56-.55-.86-.59"/><path class="cls-9" d="M90.26,104.74c-.05.26-.33.46-.39.71s.13.57.06.82-.33.43-.42.68-.2.47-.3.71-.27.43-.39.66-.17.49-.3.71-.26.45-.41.66-.08.59-.24.8-.35.39-.53.58a7.41,7.41,0,0,1-.54.58c-.18.18-.62.09-.82.27s-.12.64-.32.81-.51.19-.72.36-.43.28-.65.44-.51.16-.73.31-.36.38-.58.53-.27.52-.5.67-.51.2-.74.35l-.69.43c-.23.15-.33.5-.56.64s-.73-.15-1,0-.43.33-.66.47-.39.41-.63.54-.37.45-.61.58-.54.16-.78.28-.61,0-.86.09-.43.36-.68.46-.43.38-.68.47-.57,0-.83.11-.55,0-.81.1-.45.43-.71.49-.59-.17-.86-.12-.49.31-.76.34-.53.18-.8.2-.56-.25-.83-.24-.45,0-.7-.06-.48,0-.72,0-.48.18-.71.18-.51-.16-.72-.1a2,2,0,0,0-.65.39,1.69,1.69,0,0,0-.42.57,2.66,2.66,0,0,0-.35.64c-.07.23.15.52.1.77s-.42.4-.48.64-.23.51-.3.77-.07.55-.14.81-.24.52-.3.78-.08.56-.13.83.08.57,0,.84.06.56,0,.83.12.55.11.83-.26.54-.25.81,0,.55,0,.83c0,.08-.07.35-.11.78,0,.23.27.53.24.83s-.5.47-.53.75,0,.53,0,.81-.15.51-.18.79.35.57.31.84-.4.49-.43.76.24.57.21.84-.46.49-.49.75.29.59.25.85,0,.55,0,.81-.55.48-.59.73.35.62.31.86-.48.51-.52.73a7,7,0,0,1-.14.74c-.1.27.07.13-.22-.17a4.47,4.47,0,0,1-.44-.6c-.13-.19-.62-.19-.76-.43s-.36-.39-.49-.63-.13-.51-.26-.75,0-.58-.12-.82-.36-.39-.48-.63-.33-.42-.44-.65-.38-.39-.49-.63,0-.58-.12-.81-.42-.38-.54-.62.21-.67.1-.9-.58-.32-.68-.56-.12-.53-.22-.76-.33-.43-.43-.67.14-.64,0-.87-.59-.32-.69-.55-.14-.53-.24-.75-.32-.47-.4-.67c-.16-.37.15-.78.11-.88s-.4-.4-.44-.66.23-.52.22-.78,0-.48,0-.75-.33-.53-.3-.79.25-.48.29-.74.16-.49.21-.74-.09-.54,0-.8,0-.53.05-.78.14-.5.2-.75.35-.45.41-.7.2-.49.26-.74.14-.5.19-.75-.21-.57-.17-.81,0-.52,0-.76a6.44,6.44,0,0,0,0-.75c0-.27.22-.52.19-.76s.19-.52.18-.77-.4-.5-.4-.75.23-.5.24-.76,0-.51,0-.76,0-.52,0-.77.43-.45.47-.7-.32-.56-.28-.81.05-.51.09-.76.22-.47.25-.72.31-.47.35-.73-.35-.57-.33-.82a6.85,6.85,0,0,0,.14-.74c0-.27.27-.55.21-.8a6.35,6.35,0,0,0-.28-.74,3.19,3.19,0,0,1-.08-.75,1.07,1.07,0,0,1,0-.58,6.15,6.15,0,0,0,.37.52l.6.55c.2.17.51.22.73.37s.34.45.56.59.63,0,.86.14.35.46.58.58l.71.37c.25.12.47.28.71.4s.42.37.65.47.64-.1.88,0,.39.44.63.55.58,0,.82.14.37.51.61.62.65-.17.9-.07.38.5.64.59.51.05.74.12.55-.17.79-.11.38.53.62.58.47.19.71.24.48.08.72.14.57-.28.81-.22.4.4.64.47.52-.08.76,0,.46.35.7.36.49-.41.73-.42.49.11.73.08.51.18.75.14.46-.21.71-.25.52-.16.78-.21.57.08.84,0,.43-.51.69-.57.57.06.83,0,.58,0,.83-.07.51-.2.76-.29.51-.19.76-.3.35-.54.6-.65.6,0,.85-.1.39-.41.63-.53.65.06.89-.08.43-.34.66-.49c.07,0,.1-.45.38-.77.15-.17.27-.43.46-.66l.51-.61c.17-.19.42-.34.6-.54s.61-.18.79-.37,0-.72.2-.91.71-.08.89-.25.13-.71.31-.86.68-.06.86-.12.42-.14.37.32"/><path class="cls-10" d="M56.82,111.22c0-1.33.09-2.79-.08-4.11s-1.26-2.45-1.79-3.68c-.62-1.46-.79-3.1-1.52-4.5a24.56,24.56,0,0,0-2.7-4.31,4.09,4.09,0,0,0-1.46-1.1c-1.47-.71-2.93-1-4.23-2.13-.56-.46-2.89-2.19-2.23-3,.53-.69,2.06.17,2.69.18,1.11,0,1.49-.86,1.76-1.81a28.85,28.85,0,0,0,1.89,4.08c.68,1.3,1.65,2.47,2.22,3.84,1.16,2.8,1.46,6,3.05,8.64,1.87,3.17,5.09,4.4,8.19,5.93,1.7.84,2.84,1.82,4.81,2.07,2.75.35,6.45.71,9.1-.29.79-.29,1.92-1.35,2.79-.49s-.37,1.61-1,2c-2.14,1.29-4.83,1.53-7.22,2a53.41,53.41,0,0,1-5.76.76,6.17,6.17,0,0,0-2.49.43c-.73.5-.6.92-.82,1.79-.43,1.76-1.34,3.37-1.5,5.2s-4,9-3.61,10.91c-1.16-1.28-.46-8.16-.9-9.89s-.14-5.6.09-7.4c.33-2.67.83-2.93.75-5.13"/><path class="cls-3" d="M43.35,61.78a2.76,2.76,0,0,0,.32-1.15c0-.39.06-.77.11-1.09s-.35-.69-.29-1,.61-.48.7-.77-.15-.68,0-1,.31-.87.5-1.29.66-.43.8-.74-.1-.68,0-.94.26-.53.38-.79.1-.61.23-.87.5-.4.63-.66.07-.63.21-.89.58-.33.74-.58,0-.72.15-1,.39-.48.56-.72.28-.55.46-.79.57-.33.75-.57l.56-.72c.18-.23.55-.31.75-.55s.44-.4.64-.62.38-.47.58-.69.16-.68.37-.89.42-.44.64-.65.56-.28.79-.47.39-.47.62-.66.44-.42.69-.6.47-.38.72-.55.46-.41.72-.56.6-.18.86-.32.46-.49.73-.61.63-.08.91-.18.67.17,1,.1.47-.62.77-.68.62,0,.91,0,.57-.19.86-.25.66.2,1,.12.52-.38.81-.47.61,0,.9-.11.48-.4.75-.51.63,0,.9-.12.49-.38.76-.49l.81-.36c.27-.12.47-.41.74-.53s.58-.16.85-.28.67.08.95,0,.55-.19.82-.3.44-.56.73-.68.55-.28.83-.41.61-.15.9-.28.72.1,1,0,.38-.7.67-.82.59-.21.88-.32.58-.26.87-.35.74.29,1,.22.5-.58.81-.63.62,0,.93,0,.63.3.94.29.59,0,.9,0,.64-.38.94-.35a9.32,9.32,0,0,1,.9.27c.31,0,.66-.12,1-.06s.53.45.82.53.68-.09,1,0,.51.41.79.52.65.07.92.2.43.53.7.68.62.15.88.31.31.62.55.8.71.1.94.3.47.39.7.61.5.37.72.59.31.55.52.78.55.33.76.56,0,.78.23,1,.61.29.81.53.16.65.35.89.47.41.65.66.26.56.43.82.65.31.81.57.41.48.57.74,0,.74.11,1,.57.4.71.67.25.58.37.85-.08.71,0,1,.34.52.43.81.25.59.33.91.46.55.53.86.07.65.13,1-.06.67,0,1l.18.94c.07.32-.17.7-.1,1s.38.58.47.88.22.57.29.86.39.54.45.83-.38.69-.33,1,.58.52.62.82-.11.63-.07.93.13.59.16.89-.33.64-.3.94.28.64.29,1,.21.66.24,1a9.75,9.75,0,0,0,.3,1c.07.26-.1.58,0,.84s.14.53.22.79a5.29,5.29,0,0,1,.07.8c0,.25.16.47.18.72s.28.46.31.71a8.06,8.06,0,0,1,.13,1c0,.32,0,.66,0,1s-.25.63-.26,1-.1.89-.09,1.21c.32-.19.71-.62,1-.82s.37-.61.65-.85a3.61,3.61,0,0,1,1-.35,3.77,3.77,0,0,1,1,0c.32,0,.65-.27,1-.25a2.41,2.41,0,0,1,.94.37,2.65,2.65,0,0,1,.79.58,3.71,3.71,0,0,1,.54.83,6,6,0,0,1,.28.94,5.84,5.84,0,0,1,.23.94c.05.3.59.53.63.83s-.25.65-.22,1-.14.62-.14.92.2.61.2.92.07.61.05.92.07.62,0,.92-.09.61-.11.92-.39.6-.44.92-.11.61-.19.93.17.71.07,1-.55.47-.68.77.2.82.05,1.1-.67.37-.84.64a6.68,6.68,0,0,1-.61.69c-.2.24-.29.56-.51.78s-.48.4-.71.61-.37.52-.61.73-.54.32-.78.53-.44.43-.67.65-.44.6-.73.77-.7.12-1,.27-.4.53-.68.65-.58.12-.86.23-.58.14-.86.23-.61,0-.89.11-.55.25-.84.31a6.88,6.88,0,0,1-.89.06,2,2,0,0,1-.18.89c-.17.21-.59.23-.79.43s-.52.33-.68.52-.23.73-.44,1-.65.4-.86.69-.28.67-.48,1a8.67,8.67,0,0,1-.53.81c-.21.24-.35.57-.58.79s-.58.33-.83.54-.41.53-.67.73-.47.47-.74.65-.63.24-.91.4-.69.09-1,.24-.4.67-.69.81-.62.22-.92.35-.69,0-1,.07-.53.37-.83.48-.54.35-.85.45-.66,0-1,.09-.51.46-.81.55-.75-.3-1.06-.21-.5.54-.81.63-.63.09-.93.17-.63.11-.94.18-.61.21-.91.28-.62.17-.92.23-.64.08-.94.14-.59.16-.88.2-.62-.09-.91-.07-.6-.18-.9-.18-.61.52-.9.5-.61,0-.91-.08-.62,0-.91-.09-.58-.22-.87-.29-.48-.49-.76-.59-.7.19-1,.08-.35-.7-.62-.82-.77.21-1,.07-.3-.69-.56-.85-.59-.16-.84-.32-.69-.13-.95-.31-.34-.63-.59-.82-.66-.19-.91-.39-.57-.32-.81-.53-.2-.73-.43-1-.68-.2-.91-.42-.2-.7-.42-.93-.63-.28-.84-.51-.26-.63-.47-.86-.78-.16-1-.4-.32-.57-.53-.81-.09-.72-.3-.93-.58-.25-.8-.45-.58-.23-.8-.42-.48-.34-.7-.53l-.67-.58c-.23-.19-.32-.53-.54-.73s-.39-.44-.6-.65-.22-.58-.41-.8-.38-.42-.56-.66-.58-.31-.73-.56-.39-.48-.54-.75-.07-.65-.21-.92-.42-.46-.56-.73-.39-.49-.52-.76.13-.73,0-1-.49-.44-.62-.72-.27-.54-.4-.82-.14-.6-.26-.87-.35-.51-.47-.79-.23-.54-.37-.81-.35-.48-.49-.74-.31-.51-.45-.77.12-.76,0-1-.45-.42-.61-.68-.17-.58-.32-.84-.47-.41-.62-.67-.11-.62-.25-.88-.62-.34-.76-.6-.25-.54-.38-.82,0-.65-.08-.93-.57-.42-.64-.7,0-.61,0-.9-.32-.54-.36-.83,0-.59,0-.88.31-.62.27-.91-.25-.56-.29-.84-.39-.61-.44-.94.06-.68,0-1-.13-.65-.18-1,.13-.68.1-1-.11-.65-.12-1,0-.66,0-1"/><path class="cls-6" d="M92.67,118.15c0,.3-.26.67-.21,1s0,.55,0,.8.24.49.3.74,0,.56.06.81.3.46.39.7.24.47.35.71.07.54.19.77.54.32.66.55.17.49.3.72.2.49.34.71.24.46.39.68.51.28.66.49.21.49.37.69.14.55.3.76.24.48.41.68.54.23.71.43.2.53.37.72.34.41.52.59.37.38.56.56.44.31.62.49.54.2.73.38.36.37.56.55.14.62.33.8.6.12.79.29.47.25.67.42.09.7.28.86.54.19.75.35.34.43.56.58.51.19.73.34.39.36.61.51.63,0,.85.15.33.45.55.59.41.34.64.48.34.45.56.59.65,0,.88.11.4.35.62.5.4.35.62.5.53.18.74.34.47.27.67.43.39.38.59.55.18.59.37.77.55.2.73.39.16.57.33.77.59.21.74.43a7.92,7.92,0,0,1,.42.69c.13.23.33.44.44.68s.16.53.26.78.17.52.26.77,0,.57,0,.83.25.49.32.75.23.5.29.76.1.54.16.8-.19.59-.14.85.44.47.48.73-.08.57,0,.83-.13.57-.09.84.29.5.33.76-.1.57-.06.84.14.52.19.78.39.47.45.73-.2.59-.14.85.55.41.61.67-.09.57,0,.83-.07.56,0,.81,0,.54.12.79.45.44.52.69-.14.59-.08.84.17.51.24.76.08.53.15.78.2.5.27.75.11.52.18.78.07.53.14.78.45.43.51.69,0,.54.08.8,0,.56,0,.82.2.49.27.75.12.51.19.77.46.43.53.68.13.52.2.77,0,.54.1.79,0,.54.09.8.18.5.24.76.16.51.22.77-.09.56,0,.82.43.45.48.7,0,.53.1.79,0,.53.09.78,0,.54,0,.8.28.48.33.74,0,.52.09.78.17.5.22.76-.15.56-.1.82.29.47.34.73l.15.77c0,.26.19.49.24.75s-.3.6-.24.86a7.34,7.34,0,0,1,.28.74c0,.23.34.46.38.74s-.13.53-.1.8.28.49.31.76,0,.53,0,.8-.17.53-.15.8,0,.53,0,.79.23.51.25.78-.27.54-.25.8.4.5.41.77-.31.54-.29.81.1.51.12.78.06.52.08.78-.09.54-.07.8.15.52.17.79.25.51.26.78.17.52.19.78,0,.54,0,.8-.26.56-.23.82.15.52.18.79-.15.55-.13.81.09.53.12.79.23.51.26.76-.09.56-.06.81.28.5.32.76.33.48.37.73-.26.6-.21.85,0,.56.1.8.41.33.5.54c.19-.12.42-.12.59-.39a5.8,5.8,0,0,0,.33-.74c.1-.23-.06-.57,0-.84s.49-.38.56-.65.2-.49.26-.76-.28-.6-.22-.87.1-.51.16-.78.23-.49.27-.75.33-.48.37-.75.07-.52.11-.79.1-.52.14-.78-.07-.55,0-.81,0-.54,0-.8.08-.53.12-.8.26-.51.29-.77-.31-.58-.28-.84.51-.49.54-.75-.43-.59-.4-.85.22-.52.24-.78-.15-.55-.12-.81.31-.51.34-.77.29-.52.32-.77-.32-.58-.3-.83.24-.54.27-.77-.18-.63-.14-.83.22-.48.26-.74.06-.51.1-.77l.12-.76c0-.26.35-.48.38-.74s-.25-.55-.22-.8.44-.48.46-.74-.44-.56-.42-.81.37-.5.39-.76-.23-.53-.22-.78.24-.51.25-.77.13-.52.14-.78-.15-.52-.15-.78.13-.51.13-.77-.35-.52-.36-.77.07-.52.06-.78.12-.52.11-.78.09-.52.07-.78-.12-.51-.13-.77.05-.52,0-.78.1-.53.08-.79-.16-.51-.18-.77-.29-.5-.31-.76.05-.53,0-.79-.13-.52-.14-.78,0-.53,0-.79.1-.54.08-.8-.08-.52-.1-.78,0-.52-.05-.78,0-.53,0-.79,0-.53,0-.79-.17-.51-.19-.78-.22-.51-.24-.77.33-.55.31-.81-.17-.52-.19-.78-.09-.52-.12-.78-.11-.52-.13-.79.29-.55.26-.81-.42-.49-.44-.76.34-.56.31-.82-.28-.51-.31-.77.06-.54,0-.8-.23-.5-.26-.76.16-.56.13-.82-.11-.52-.15-.78,0-.54,0-.8-.16-.51-.2-.77,0-.53-.07-.79-.5-.45-.55-.71-.09-.52-.14-.78.21-.58.15-.83-.27-.49-.32-.75-.21-.49-.27-.74.26-.61.2-.86-.35-.46-.42-.72,0-.54-.08-.8-.25-.48-.32-.73-.28-.47-.35-.72.15-.6.07-.85-.46-.41-.54-.66-.25-.47-.34-.71,0-.57-.09-.81,0-.57-.11-.81-.35-.44-.47-.68-.09-.57-.23-.79-.5-.32-.65-.54-.14-.57-.31-.77a7.7,7.7,0,0,0-.54-.6c-.18-.2-.55-.21-.74-.39s-.23-.56-.43-.73-.68,0-.89-.15-.18-.66-.4-.81-.58-.08-.81-.22-.42-.33-.65-.45-.59,0-.83-.13-.27-.65-.51-.76-.59,0-.83-.09-.42-.38-.67-.48-.52-.11-.77-.21-.48-.22-.73-.31-.52-.12-.77-.21-.48-.25-.73-.34-.49-.21-.74-.29-.53-.09-.78-.17-.49-.21-.75-.29-.59.13-.85,0-.52-.11-.77-.19-.38-.59-.63-.67-.58.07-.83,0-.44-.38-.69-.46-.56,0-.81-.08-.58,0-.83,0-.44-.37-.68-.46-.48-.25-.72-.34-.57,0-.81-.12-.48-.24-.72-.34-.33-.53-.56-.65-.5-.17-.73-.3-.53-.14-.74-.28-.59-.12-.79-.29-.19-.59-.38-.77-.44-.3-.62-.5-.41-.34-.58-.55-.13-.56-.29-.78-.38-.37-.53-.59-.27-.45-.41-.67-.22-.48-.36-.7-.39-.38-.53-.61-.14-.54-.28-.76-.4-.38-.55-.6-.39-.37-.54-.59-.5-.32-.67-.53,0-.74-.19-.93-.73-.07-.92-.22-.39-.4-.61-.48-.38,0-.6.1-.63.08-.73.41a4.36,4.36,0,0,0-.15.85c0,.25.41.52.43.83"/><path class="cls-5" d="M77.32,243.41c-11.61,1.45-23.1,4.32-34.78,5.06-2,.13-4.36-.21-6.09.91-.67.44-.16,1.19-1.33,1.09-.57-.05-1.23-.86-1.51-1.29a10.38,10.38,0,0,1-1.89-5.91c.12-1.76,1.05-3.34,1.3-5a23.31,23.31,0,0,0-.27-3.88c-.06-2.66.13-5.44,0-8.15-2.47-.69-5.41.24-8,.13-.14-1.31.58-2.62.63-3.95.44-12.11-.06,3.45,1.8-8.54A241.14,241.14,0,0,0,29,186.7c-.09-3.31-1.39-6.29-2.63-9.29-1-2.47-1.26-4.84-2-7.37-.62-2.24-1.44-4.48-1.09-6.85.09-.64,2.36-6,3.59-4.82,3.18,3,3.56,8.69,4.81,12.62a30.84,30.84,0,0,0,3.57,7.35,22.65,22.65,0,0,0,2.22-1.07c4.38,4.27,5,12.5,6.36,18.08,2.34,10,2.74,12.37,1.79,22.52-.82,8.77-5.24,12.85,7.83,14.11,3.33.32,6.82-.59,10.13-.89a114.48,114.48,0,0,1,11.71-.44c8.6.09,16.45,2,24.73,4.06,1.44.35,23.11,4.52,16.4,9.84-2.58,2-7.88,1.56-11,1.65-5.34.15-10.27-3.63-15.84-3.63a99.14,99.14,0,0,0-12.3.84"/><path d="M41.57,73.25c-.16-6.3-2.41-12-1.38-18.37,1.16-7.18,3.51-14,9.17-18.91,11.83-10.24,27.91-14.39,42-5.89,1.67,1,.88-2.14-.12-2.74-14.35-8.64-30.73-5.17-43.05,5.2C42.11,37.67,39.45,44.29,38,52a32.94,32.94,0,0,0-.22,11.25c.48,3,1.79,6,2.09,9.06.07.74,1.69,2.4,1.66,1"/><path d="M83.6,28c8-4.59,19.08,5.16,21.58,12.55a34.43,34.43,0,0,1,1.48,13.94c-.4,4.49-2.47,9-2.61,13.4,0,.76,1.49,2.82,2,1.47,3.74-10,5.25-22.33-.13-32.21C102,30,90.51,20.6,82.19,25.68c-.86.53.52,2.85,1.41,2.34"/><path class="cls-11" d="M34.85,212.44c-.32,2.6-1.09,5.08-1.11,7.72,0,1.48,1,4.17.24,5.49-.65,1.11-1.69,0-2.95-.12-2.28-.22-3.52-.18-2.34-2.69a21.53,21.53,0,0,0,1.88-8c.09-1.39-.16-2.8-.08-4.17.09-1.66.72-3.41.93-5.08.86-6.79.31-7.37-.6-14.13a32.78,32.78,0,0,1-.14-7.14,33.54,33.54,0,0,1,.55-5.53c1.36,1.29,2.19,3.37,3,5,.94,2,2,3.7,2,6s-.81,15.08-1,17.4c-.26,4.22.58-8.39.37-4.18-.16,3.12-.41,6.25-.78,9.36"/><path class="cls-3" d="M42.05,66.3c-.8,3.75,1.06,7.65,2.21,11.13s2.28,7.25,3.57,10.83c2.63,7.28,4.79,13.7,10.63,19.12,6.12,5.67,14.72,6.62,22.53,3.87C89.75,108.17,96,99.59,99,91.16a87.25,87.25,0,0,0,5.37-28.42c0-.43-1-1.48-1.07-.79C102.22,77.08,99.81,96.53,86.57,106c-6.5,4.67-16.71,7.14-24.22,3.11-6.74-3.61-10.29-11.27-12.48-18.09-1.31-4.1-2.69-8.27-4.09-12.34C44.58,75.23,42.35,71,43,67.16c.08-.46-.83-1.53-1-.86"/><path class="cls-3" d="M102.91,73.36c1.2-2.43,4.88-5.87,7.41-3,1.78,2,1.41,5.69.63,8-1.49,4.4-6.3,13.86-12.26,12.13-.75-.21-.12,1.22.33,1.4,7.08,2.8,13.79-10.4,14-15.89.09-2.49-.77-6-3-7.48-3.28-2.11-6.47,1.32-7.63,4.25-.1.27.39,1,.55.66"/><path class="cls-3" d="M43.27,73.24c-2.33-1.43-6.31-4.6-8.26-1-1.26,2.31-.5,6,.31,8.3,2.32,6.6,8.56,10.54,14.72,12.85.75.29.2-1.27-.22-1.47-4.26-2-8.69-3.76-11.35-8-1.53-2.41-3-5.12-2.61-8.07.22-1.78,1-3.52,3-3.44,1.26.06,3.34,1.34,4.45,1.85.69.33.3-.81,0-1"/><path class="cls-3" d="M56.7,103.81c.61,2.75-.36,6-.65,8.7-.31,3-1,5.86-.91,8.88,0,.61,1.26,1.76,1.24.73-.05-3.06.6-6.06.77-9.12s1.28-5.66.52-8.91c-.13-.56-1.18-1.23-1-.28"/><path class="cls-3" d="M91.33,101.92c-.94,1.26-.88,4.56-.94,6.19-.11,3,0,6-.18,9,0,.59,1.12,1.69,1.18.7.27-5-.55-10.39.51-15.27,0-.22-.34-.91-.57-.6"/><path class="cls-3" d="M92.32,110.79a3.22,3.22,0,0,0,1,.95,4.47,4.47,0,0,1,.41.35c.14.14.27.51.18.13a3.88,3.88,0,0,0,.43,1.21,5.74,5.74,0,0,0,.35.47c.08.09.74.78.27.25.35.4,1,.64,1-.08a2.52,2.52,0,0,0-.48-1.32c.15.32,0-.3-.06-.36a2.88,2.88,0,0,0-.38-.74,5.14,5.14,0,0,0-2.32-2,.39.39,0,0,0-.44.14l-.06.06c-.21.21,0,.72.14.92"/><path class="cls-3" d="M94.87,113.67A24.91,24.91,0,0,0,99.61,121c1.62,1.9,2.82,2.83,4,4.62.82,1.29,2,.59,1.18-.72-2.65-4-6.81-6.74-8.78-11.33-.36-.84-1.57-1.12-1.11.08"/><path class="cls-3" d="M98.44,120.31c5.9,2.3,11.43,5.45,17.18,8,5.27,2.33,11.14,5,13.38,10.62.47,1.19,2.15,1.53,1.52-.1-2.45-6.4-7.86-9.06-13.76-11.8-6.12-2.84-12.3-5.93-18.68-8.2-.75-.26-.16,1.3.36,1.5"/><path class="cls-3" d="M128.14,139.19c-3.65,5.25-5.91,12.14-8.19,18.06-2.12,5.53-4,12.08-3.93,18,0,.73,1.48,2.16,1.51.89.13-6.35,2.11-13.06,4.38-18.91,2.14-5.52,4.13-11.82,7.27-16.81.31-.5-.64-1.84-1-1.27"/><path class="cls-3" d="M46.57,127.14a87.22,87.22,0,0,0-9.87,4c-3.35,1.44-6.78,2.53-10.05,4.14-5.29,2.61-10.15,9.53-7.84,15.71.23.63,1.09.81.8,0-2.52-7.34,5.67-13.3,11.14-15.67,2.6-1.12,5.24-2.2,7.88-3.23,2.9-1.13,5.56-2.82,8.47-3.81.37-.12-.17-1.16-.53-1"/><path class="cls-3" d="M18.34,149c.44,11.15.34,22.12,1.53,33.27.5,4.68,1.21,9.35,1.93,14,.79,5.18,2.43,10.38,3,15.55.07.62,1.43,2,1.41.83-.11-4.72-1.79-9.57-2.49-14.24-.72-4.9-1.48-9.79-2.17-14.69C20,172.36,20.09,161,19.49,149.64c0-.55-1.19-1.62-1.15-.67"/><path class="cls-3" d="M29,161.34c-.25,4.45,1.15,10,2.25,14.29,1.21,4.68,2.08,9.49,3.68,14.09.29.82,1.41,1,1-.07-1.51-4.3-2.38-8.84-3.49-13.26s-2.92-10-2.75-14.63c0-.36-.68-1-.71-.42"/><path class="cls-3" d="M35.55,165c0,6.51-.31,13-.66,19.44-.3,5.42.14,11.14-.37,16.51-.06.64,1.27,2.18,1.4,1.23.77-5.86.29-12.2.51-18.11.24-6.18.25-12.26.21-18.43,0-.53-1.09-1.56-1.09-.64"/><path class="cls-3" d="M119.29,248.87c7.95-1.23,7.8-13.17,7.76-19.18a76.74,76.74,0,0,0-1.37-11.42c-.56-3.63-.59-7.26-1.54-10.79-.08-.3-.91-1.63-1.28-.95-1.13,2.05-.67,4.79-2,6.68l1.68,1.24c-1.35-6.86-1.08-14.18-1.6-21.16-.27-3.61-.64-7.21-1-10.82-.31-3.45-1.88-6.75-2.15-10.18-.06-.8-1.73-2.21-1.59-.94.39,3.59,2.21,7,2.3,10.64s.35,7,.49,10.58c.28,7-.06,14.65,1.77,21.38.1.36,1.25,2.15,1.68,1.23,1-2.2.46-4.9,1.57-7.13l-1.28-1c.87,3,.86,6,1.25,9.05.48,3.77,1.48,7.38,1.53,11.18.08,7.37,0,16.18-7,20.18-.49.28.22,1.44.69,1.36"/><path class="cls-3" d="M120.84,248.09c-.17-1.46-1.82-2.21-2-3.5,0-.29-.85-1.47-1-.73-.75,3.88,0,8.42.14,12.35l.42,13.25c.25,7.68.64,15.49.74,23.18.2,17.2.53,34.4.46,51.59,0,9.28-1.09,18.84-.44,28.11,0,.64,1.39,2,1.41.83.21-17.93,1.39-35.82.9-53.82-.48-17.61-.44-35.15-1.34-52.73-.24-4.64-.5-9.34-.72-14-.12-2.34.21-4.9-.43-7.18-.13-.46-.93-1-.24.45.38.77,1.47,1.06,1.67,2,0,.16.45.51.41.18"/><path class="cls-3" d="M33.48,249.25c-1.93,48.4-5,97.12,2.36,145.24,1.85,12.11,3.8,24.1,6,36.13.16.87,1.7,1.88,1.47.43-3.54-22-8-44.17-9.3-66.52-.71-12.35-1.1-24.56-1.2-36.94s.66-24.72.87-37.13c.23-13.5.57-27,1-40.49,0-.6-1.17-1.74-1.21-.72"/><path class="cls-3" d="M42.54,431.46c7.05,3.14,13.68,4.55,21.16,1.86.77-.27-.35-2.24-1.07-2.11-3.63.64-7.08,1.56-10.82,1.22-3.53-.33-6.6-1.76-9.79-3.16-1-.44-.23,1.85.52,2.19"/><path class="cls-3" d="M20.4,173c-.65,5.69,0,11.73-.06,17.45,0,6.93.14,13.93-.4,20.83-.12,1.52-.1,3.56-.86,4.94-.9,1.64-2.35,1.68-3.49,3s-2.08,4.46-.76,6c1.66,1.92,6.71,1.72,8.93,1.68,3.38-.07,6.61-1,10-1,.77,0,0-1.81-.75-1.81-3.28,0-6,.89-9.22,1.13a23.16,23.16,0,0,1-4.77-.39c-2-.29-3.7-.35-2.87-2.79.71-2.11,2.69-2,3.9-3.53.54-.66.88-2.92,1-3.69a67.29,67.29,0,0,0,.54-8.51c0-5.85-.19-11.71-.23-17.57,0-4.83-.58-10.16-.11-15,0-.42-.8-1.35-.86-.77"/><path class="cls-3" d="M129.6,138.61c1.05,6.36.69,13.21,1.17,19.6s.39,12.87.93,19.25c.52,6.2,1,12.45,1.45,18.67.21,2.84.79,5.71.89,8.57s-.22,4.27-2.91,5.66a15.5,15.5,0,0,1-5.81,1.73c-1.07,0,0,2.51,1,2.48,2.88-.08,7.83-1.62,9.38-4.38,1.37-2.42.1-6.77-.32-9.36-1-6.22-1.33-12.69-1.7-19-.41-7.1-.56-14.21-1-21.31-.22-3.63-.61-7.28-1-10.92s-.17-7.19-1-10.65c-.15-.65-1.34-1.49-1.15-.34"/><path class="cls-3" d="M122.12,316.3c4.64-4.42,5.64-12.89,6.5-18.9a120.2,120.2,0,0,0,1.17-20.07c-.17-6.86-.47-13.65-.28-20.53.19-7.07,1.15-14.2,1.79-21.22.71-7.76,1.46-15.4,1.54-23.21,0-.92-1.85-2.64-1.86-1.1a389.94,389.94,0,0,1-2.66,38.92c-1.47,13.54.64,27.07-.57,40.64-.64,7.18-1,18.58-6.54,23.95-.5.48.48,1.94.91,1.52"/><path class="cls-3" d="M31,315.27c-1.77-2.81-2.39-7.23-3.15-10.42s-1.23-6.54-1.93-9.78c-.78-3.65-1.72-7.05-1.88-10.85-.2-4.63,1.1-8.16,2.06-12.56.8-3.66-.42-7.82-.85-11.48-.37-3.15-1-6.32-1.25-9.51-.35-4-.47-8.14-.66-12.23-.18-3.9-1.36-7.61-1.6-11.49,0-.52-1.42-2.18-1.53-1.12-.31,3.06.58,5.68,1,8.69.35,2.75.49,5.68.61,8.46.26,6.08,1.13,12,2,18,.48,3.36,1.28,7.11.24,10.41a31,31,0,0,0-1.75,9.12c-.1,5.82,1.46,11.1,2.6,16.71,1.18,5.85,1.86,13.51,5.13,18.65.72,1.13,1.76.53,1-.62"/><path d="M37.74,58.13c-1.52-3.59-.3-7.07.33-10.66a52.25,52.25,0,0,1,2.72-11A13.49,13.49,0,0,1,47,30.13a17.39,17.39,0,0,1,4.25-1.83,23.83,23.83,0,0,1,4.86-.24c2.7,0,5.33-1.19,8-2a34.2,34.2,0,0,1,7.29-1.85,44,44,0,0,1,10.37.61c1.73.28,3.75,1.51,5.41,1.37,1-.09,2.06-.67,3.16-.75a10.84,10.84,0,0,1,3.67.38c2.57.72,5.21,2.52,7.43,3.95,6.07,3.92,5.74,11.62,6,18a34.45,34.45,0,0,0,.65,6.74A23.71,23.71,0,0,1,108.8,59c.11,1.93.48,3.81.49,5.74a13,13,0,0,0,.14,2.42c.08.37.34.78.27,1.15a9.1,9.1,0,0,0-2.6.33,4.78,4.78,0,0,0-1.31.62,6.84,6.84,0,0,1-1.06.68c-.49.28-.89.77-1.34,1.07a7.68,7.68,0,0,1,.27-1.57,15.3,15.3,0,0,0-.46-4.36c-.73-3.45-.93-8.11-2.86-11.14a31.37,31.37,0,0,1-2.12-4.12,23.74,23.74,0,0,0-3-4.54c-1.59-2.1-3.41-4-4.89-6.15-.42-.63-1.46-2.39-2.35-2.3s-1.6,1.66-2.16,2.12a32.91,32.91,0,0,1-8.54,5c-7.4,3-14.76,2.82-22.57,3.52a8.84,8.84,0,0,0-7.22,4.48c-1.22,2-2.88,4.2-3.15,6.6-1.6,2.15-1.55,6.36-1.84,9a15.61,15.61,0,0,0,.09,4.92,4.68,4.68,0,0,1,.36,1.87c-.72.39-1.19-.42-1.59-1-1.73-2.39-1.7-7.29-1.74-10.19-.06-4.63-.94-8.79-.3-13.45.84-6.19,4.25-11.42,8.41-15.92,4.4-4.74,9.61-11.65,16.84-9.35"/><path class="cls-3" d="M73,274.05c0-1,1.25-3.1,2.71-2.25.26.15.28,1.24.42,1.5a10.3,10.3,0,0,1,.66,2.76c.34,1.86.4,3.77.56,5.65.35,3.94.64,7.9,1,11.84.68,7.82.73,15.7,1.47,23.51,1.48,15.54,1.74,31.3,2.91,46.94.64,8.52.28,17,.8,25.58.43,7.22,2,14.2,3.23,21.32.66,3.94,1.12,7.84,1.4,11.83.19,2.56-.6,7.34,2.18,8.85s8.35-.4,11.44-.73c2-.22,4-.22,6-.55s2-.46,2.44-2.32c1.11-4.33,1.69-8.78,2.72-13.12,1.14-4.77,2.45-9.5,3.7-14.23a102.86,102.86,0,0,0,2.78-14.34c.56-4.85,0-10.26,1.09-15,.16-.78-1.36-2.51-1.61-1.42-.95,4.21-.82,9.08-1.12,13.4a80,80,0,0,1-1.89,12.49c-2,8.45-4.72,16.65-6.37,25.2-.31,1.6-.44,3.34-.85,4.92-.67,2.59-2.92,2.42-5.46,2.69-2.27.24-11.58,2.5-13.1.58-.76-1-.22-4.95-.28-6.22-.1-1.91-.2-3.85-.45-5.75-.46-3.48-1.14-6.93-1.89-10.35a91.3,91.3,0,0,1-2.34-23.62c.39-8.29-.76-16.48-1.38-24.71C82.6,343,81.57,327.49,81,312c-.35-9-.85-17.87-1.63-26.82C79,280.9,79,276,77.11,272c-1.74-3.66-5.39-2.86-5.36,1.33,0,.62,1.24,1.81,1.26.75"/><path class="cls-3" d="M76.43,276.65c0,5-.54,10.37-1,15.35s-1,9.65-1.27,14.5c-.53,9.47-.9,18.94-1.87,28.36-1.06,10.38-1.48,20.89-2.24,31.24-.17,2.25-.41,4.42-.64,6.67,0,.3.26.67.22.92-.17,1.38-.1-1.44-.2,0s-.08,2.59-.16,3.89c-.34,5.72-1.25,11.39-1.42,17.09-.19,6-1.25,12.22-1.82,18.23a12.74,12.74,0,0,1-.24,2.32c-.22,1.36-.31,2.63-.48,3.95-.41,3.19.13,7.24-1,10.28-.48,1.31,2.1,4.39,2.81,2.49.92-2.45.73-5.68,1-8.26.25-2.8.78-5.48,1-8.28.11-1.2,0-1.57.05-2.4.08-1.34.39-2.67.53-3.95.24-2.27.26-4.5.4-6.77.67-10.34,2-21.57,2.62-31.16.57-9.36,1.23-18.87,2-28.25.8-9.88,2-19.94,2.18-29.8.24-11.58,2.13-23.43,1.94-35,0-1.18-2.43-3.43-2.41-1.42"/><path class="cls-4" d="M104.59,15c.33,5.64.16,11.28.43,17s-7.14,5.61-11.68,6.5c-5.79,1.15-11.28.27-17.17-.22a81.25,81.25,0,0,1-18.83-3.36c-4.32-1.43-10.19-2-10.17-7.13,0-3.08.37-6.22.55-9.31C48,13.8,47.33,7.94,49,3.53c7.69,4.26,18,4.52,26.65,4.93a133.32,133.32,0,0,0,15,0c2.55-.16,5.09-.42,7.62-.73,1.31-.17,4.49-1.36,5.55-.48.81.67.67,5,.72,5.91q.06,1,.12,1.92"/><path class="cls-12" d="M91.13,111.54c.51,8.88-3.18,17.81-6.83,25.69-5.39,11.62-9.8,23.85-15.57,35.25C62.88,184.06,57.29,188.64,47.88,198c-3.25,3.25-7.06,6.19-10.16,9.48-1.64,1.74-2.46,3.72-4.53,5,.91,2.69.82,6.4,1.16,9.32a19.7,19.7,0,0,1-.28,5.53c1.18-2.33,4.39-3.44,6.39-4.91,2.84-2.08,5.35-4.62,8.19-6.73,6.94-5.16,12.28,5.29,17.14-1.83,5.82-8.53,13-26.89,17.91-36,3.46-6.47,5.93-13.2,8.62-20,3.28-8.28,7.28-16.73,8.82-25.56.84-4.84-.67-8.82-2.7-13.15A48.3,48.3,0,0,0,95,112.56c-.67-1-1.87-2.58-3-3-2-.73-1.39,2.2-.8,2"/><path class="cls-13" d="M91.13,111.54c.51,8.88-3.18,17.81-6.83,25.69-5.39,11.62-9.8,23.85-15.57,35.25C62.88,184.06,57.29,188.64,47.88,198c-3.25,3.25-7.06,6.19-10.16,9.48-1.64,1.74-2.46,3.72-4.53,5,.91,2.69.82,6.4,1.16,9.32a19.7,19.7,0,0,1-.28,5.53c1.18-2.33,4.39-3.44,6.39-4.91,2.84-2.08,5.35-4.62,8.19-6.73,6.94-5.16,12.28,5.29,17.14-1.83,5.82-8.53,13-26.89,17.91-36,3.46-6.47,5.93-13.2,8.62-20,3.28-8.28,7.28-16.73,8.82-25.56.84-4.84-.67-8.82-2.7-13.15A48.3,48.3,0,0,0,95,112.56c-.67-1-1.87-2.58-3-3C89.92,108.82,90.54,111.75,91.13,111.54Z"/><path class="cls-12" d="M72.75,164.92c-4.46-10.55-9.9-20.8-12.92-31.94-1.22-4.52-3.7-8.57-4.41-13.24-.43-2.81-.47-5.63-.85-8.43a19.8,19.8,0,0,0-3.64,4.5c-1.15,1.62-2.81,3-3.69,4.75-1.73,3.51-.94,7.52-.24,11.24,2,10.71,5,21.29,10.3,30.87,2.71,5,6.92,9.26,9.34,14.3"/><path class="cls-13" d="M72.75,164.92c-4.46-10.55-9.9-20.8-12.92-31.94-1.22-4.52-3.7-8.57-4.41-13.24-.43-2.81-.47-5.63-.85-8.43a19.8,19.8,0,0,0-3.64,4.5c-1.15,1.62-2.81,3-3.69,4.75-1.73,3.51-.94,7.52-.24,11.24,2,10.71,5,21.29,10.3,30.87,2.71,5,6.92,9.26,9.34,14.3"/></g></g></svg>