<svg id="圖層_1" data-name="圖層 1" xmlns="http://www.w3.org/2000/svg" xmlns:xlink="http://www.w3.org/1999/xlink" viewBox="0 0 150 480"><defs><style>.cls-1{fill:none;}.cls-2{clip-path:url(#clip-path);}.cls-3{fill:#fff;}.cls-4{fill:#545454;}.cls-5{fill:#efefef;}.cls-6{fill:#dcdcdc;}.cls-7{fill:#acacac;}.cls-8{fill:#c2ac51;}.cls-9{fill:#d3c482;}.cls-10{fill:#b49928;}.cls-11{fill:#876d21;}.cls-12{fill:#a8551c;}.cls-13{opacity:0.32;}.cls-14{clip-path:url(#clip-path-4);}.cls-15{fill:#9d9d9d;}.cls-16{clip-path:url(#clip-path-5);}.cls-17{clip-path:url(#clip-path-6);}.cls-18{clip-path:url(#clip-path-7);}.cls-19{clip-path:url(#clip-path-8);}.cls-20{clip-path:url(#clip-path-9);}</style><clipPath id="clip-path"><rect class="cls-1" width="150" height="480"/></clipPath><clipPath id="clip-path-4"><rect class="cls-1" x="43.08" y="17.72" width="13.2" height="26.98"/></clipPath><clipPath id="clip-path-5"><rect class="cls-1" x="51.05" y="18.94" width="4.27" height="9.41"/></clipPath><clipPath id="clip-path-6"><rect class="cls-1" x="54.68" y="21.43" width="3.6" height="8.13"/></clipPath><clipPath id="clip-path-7"><rect class="cls-1" x="56.19" y="15.75" width="7" height="17.42"/></clipPath><clipPath id="clip-path-8"><rect class="cls-1" x="62.06" y="21.83" width="6.18" height="10.06"/></clipPath><clipPath id="clip-path-9"><rect class="cls-1" x="67.12" y="19.55" width="7.05" height="10.26"/></clipPath></defs><title>shenzhen-icon</title><g class="cls-2"><g class="cls-2"><g class="cls-2"><path d="M47.65,428.5a3.55,3.55,0,0,1,4.39-2c1.87.44,3.48,1.64,5.35,2.06s2.38-.15,3.87-.91c2.51-1.27,7-3.32,9.2-.75s2.82,6.33,2.71,9.59c-.17,4.87-3,7.87-5.77,11.52-3.29,4.29-4.3,9.73-7.39,14.17a26.68,26.68,0,0,1-13.24,10.28c-4.65,1.57-11.54,3.28-16.36,1.27a5.92,5.92,0,0,1-3.56-3.51c-1.06-3.38-1.7-7.36,0-10.62s4.91-5.77,6.82-9c2.6-4.42,5.38-8.75,8.23-13,1.65-2.46,4-4.61,5-7.43a13.65,13.65,0,0,1,.72-1.59"/><path class="cls-3" d="M34.24,315.41l-.16,0c-4.87,1-8.6-21.36-9.87-25.2-1.34-4.08-4.52-13.43.72-16.1,2.29-1.17,5.91-.95,8.4-1.35,3.56-.57,4.81-.95,5.63,3.07a40.94,40.94,0,0,1,1,11.88c-.33,3.65-1.34,26.61-5.68,27.66"/><path class="cls-4" d="M115,238.71c7.39.75,7.68,3.54,7.69,10.08,0,2.86,0,5.66.14,8.5a25.58,25.58,0,0,0,.85,4.37c.66,3.06.4,6.26.73,9.38a35.61,35.61,0,0,1,.38,7.36c-.23,2.17-.19,4.3-.25,6.48-.07,3.28-.59,23.34-.58,26.62a124.17,124.17,0,0,0,.83,13.38c.54,4.65.42-1.08.1,3.59-.51,7.45-1.7,14.82-2.82,22.18a175.1,175.1,0,0,0-1.79,19.06c-.11,2.56-.33-15.84-.2-13.28s.78,5.18.7,7.85c-.24,8.1-1.35,26.67-3.15,34.56-.9,3.94-2,7.85-3.2,11.69a35.5,35.5,0,0,0-1.52,10.63c0,1.84-.34,3.62-.53,5.45-.14,1.22.12,3.54-.62,4.64-1.67,2.51-6.7,1.73-9.16,1.88-2.87.18-6.45,1-9.28.09-3-1-2.45-5.74-2.16-8.15.51-4.34-1-8.52-1-12.93,0-2.3-.42-4.46-.44-6.73,0-3-.16-6-.29-9-.17-4.25-.64-18.83-1.18-23-.59-4.53-.14-9.06-1-13.6-.83-4.19-1.39,12.62-2.12,8.43-.65-3.69,1.84-6.56,1.46-10.25s-1.1-8.55-1.29-12.37c-.33-6.51-1.37-12.35-2.29-19-.54-3.86,1.21,3.41.55-.43-.17-1-2.39-15.89-3.49-16.47-2.55-1.36-5.51,15.33-5.59,16.56-.61,8.71-1.37,6.66-2.55,15.37-1.15,8.53.52,17.05.47,25.68-.06,9.19.72-2.55,0,6.63-.51,6.13-1.53,22.75-2.09,28.9-.62,6.83-3.12,13.21-3.77,20-.31,3.2.62,7.61-.41,10.68-1.08,3.22-3.62,2.49-7.33,2.65-5.79.24-7.59.55-12.88-2.44-7.24-4.1-6.54-20.21-7.13-27-1.23-14.11-4.8-38.47-5.18-52.61C33,336,31.8,349.1,31.8,330.79c0-12.33,0-41.46.36-53.76.24-8.94,2-17.88,1.06-26.77-.24-2.42-2.1-4.1-.2-5.29,3.11-1.94,10.66-.7,14.34-1.25,4.48-.67,9-1.37,13.44-2,17.9-2.64,36.08-4.81,54.17-3"/><path d="M81.52,329.05c-.22-5.85.51-1.27.81-7,.31-6-1.82-28.41-3-34.29-5.38,5.2-7.46,33.35-8,40.62C70.79,337,70,335,68.86,343.7c-1.15,8.53.51,17.06.46,25.68,0,9.2.73,8,0,17.14-.51,6.13-1.53,12.25-2.09,18.4-.75,8.33-3.67,16-3.74,24.44-.11,11.06-16,15.4-20.44,5A59.45,59.45,0,0,1,39,420.82c-2.17-11.75-2-34.19-4.69-45.92-2.52-10.85-2.42-.2-2.83-11.19C31.12,355.27,30,347,30,338.5c0-19.12,2.2-44.07,3.26-63.06.43-7.74-.7-15.46.38-23.2.61-4.38,1-7.57,5.65-7.21,6.32.48,12.05-.39,18.48-1.34,17.9-2.64,36.07-4.81,54.16-3,15.37,1.56,9,25.64,7.85,35.45-1,8.59-1.52,33.35-1.14,41.94.32,7.38-.35,4.35-.36,11.72,0,6.82.48,13.42.9,20.14.45,7-1.67,14.67-2,21.74-.1,2.56-.33-15.83-.2-13.27s.78,5.18.7,7.84c-.24,8.11-1.35,26.67-3.15,34.57-.89,3.94-2,7.84-3.2,11.69a35.43,35.43,0,0,0-1.52,10.62c0,1.85-.33,3.63-.53,5.46-.13,1.21.12,3.54-.62,4.64-1.73,2.59-5.7,1.64-8.27,1.86-3.53.29-7.77,1.93-9.73-1.29S89.27,423.65,89,420.07c-.39-4.88-.61-9.78-.82-14.66-.54-12-2.28-34.36-3.48-46.31-1.71-17-2.51-13-3.16-30.05"/><path class="cls-5" d="M95.33,106.81c0,.27-.29.53-.31.8s.13.56.09.83-.38.49-.43.76.24.59.18.86-.09.54-.15.81-.07.55-.15.81-.3.48-.38.74,0,.57-.11.83-.62.35-.72.6.05.6,0,.86-.45.39-.56.64-.11.55-.22.79-.33.45-.45.69.05.64-.07.88-.17.53-.3.77-.59.3-.72.54,0,.62-.14.86-.29.46-.43.7-.56.3-.7.53-.17.54-.31.76-.23.5-.37.73,0,.61-.17.84-.33.42-.47.65-.44.35-.58.57l-.44.67c-.15.22-.54.27-.7.49s-.13.55-.29.77-.27.46-.43.68-.14.57-.31.77-.7.12-.87.32,0,.71-.19.91-.49.27-.68.46a7.72,7.72,0,0,1-.53.61c-.19.19-.64.09-.84.27s-.25.51-.46.68-.32.46-.53.62-.36.43-.58.58-.58.09-.81.23-.48.24-.71.37-.52.14-.76.25-.52.33-.73.41-.58.38-.82.34a2.18,2.18,0,0,1-.84-.34l-.69-.49c-.21-.17-.3-.51-.52-.68s-.28-.54-.49-.71-.58-.17-.79-.35-.58-.18-.79-.36-.29-.51-.49-.7-.31-.49-.51-.68-.56-.21-.76-.4-.33-.47-.54-.65-.42-.36-.63-.55-.37-.41-.58-.6-.33-.45-.53-.63-.36-.37-.56-.56-.7,0-.89-.21-.16-.58-.35-.77-.25-.49-.43-.68-.49-.26-.67-.45-.41-.34-.58-.54-.42-.34-.59-.54-.31-.44-.47-.64-.1-.6-.26-.81-.33-.41-.48-.62-.59-.23-.74-.45,0-.62-.16-.84-.7-.19-.83-.42.07-.65-.05-.88-.17-.5-.27-.73a4.92,4.92,0,0,1-.37-.68c-.06-.24-.06-.5-.1-.76s-.2-.5-.22-.76.06-.52.06-.78,0-.52-.06-.78-.19-.52-.2-.77.18-.54.16-.79-.35-.51-.37-.78.06-.55,0-.82,0-.54,0-.81.12-.55.1-.81-.13-.54-.14-.81,0-.53,0-.8-.23-.54-.23-.81.27-.54.27-.81.13-.53.14-.8-.23-.55-.22-.83.28-.53.29-.8-.11-.55-.09-.82,0-.55,0-.83-.07-.55,0-.82.21-.53.24-.8-.09-.57-.06-.84,0-.56,0-.83.21-.52.26-.79.34-.49.4-.76-.26-.62-.2-.89.18-.52.23-.73.42-.38.58-.56.24-.38.55-.5a2.46,2.46,0,0,1,.8-.3c.25,0,.54.2.83.22s.57-.2.85-.15.44.56.71.62.62-.22.88-.15.52.21.78.28.52.2.78.28.56.11.8.18.57.13.79.19l.78.23c.26.06.54.06.8.12s.49.27.75.32.49.31.75.36.61-.38.87-.34.52.09.78.12.53,0,.79,0,.52.13.79.13.54.33.8.32.51-.4.78-.43.59.42.85.38.43-.57.7-.63.62.3.89.23.5-.31.75-.4.42-.44.67-.55.63,0,.88-.09.38-.46.62-.6.41-.36.65-.5.67,0,.91-.09.33-.53.57-.67.64,0,.89-.11.34-.43.6-.55.56,0,.82-.08.35-.59.61-.67.54,0,.8-.1.6.25.86.2.48-.3.74-.33.53-.26.79-.27a5.65,5.65,0,0,1,.82,0,4.38,4.38,0,0,1,.82.13c.26.07.48.33.71.45a3.33,3.33,0,0,1,.63.49c.19.18.16.5.3.74a2.69,2.69,0,0,1,.28.64c.06.23.38.42.41.68a6.41,6.41,0,0,1,.16.76c0,.25-.21.52-.21.78s.15.51.14.77.11.52.1.77-.42.51-.43.75.23.54.24.77,0,.55,0,.83-.1.55-.1.83.09.55.08.83,0,.55,0,.82.07.56.06.84,0,.55,0,.82-.47.54-.48.82.14.55.13.83.28.56.28.84"/><path class="cls-3" d="M128.51,311.33c-.79-.46-1.28-1.74-1.62-2.89-1.1-3.7-.29-24.71.34-28.42.35-2,.6-4.06.91-6.09.11-.76-.09-1.73.46-2.37.89-1,4.37-2.05,5.72-1.91.34,2.94.4,5.92.56,8.88s-1,6.4-1.69,9.29c-.51,2.06-1.06,21.88-2.91,23.22a1.56,1.56,0,0,1-1.77.29"/><path class="cls-6" d="M97.55,88.69c-.18.21-.19.52-.33.66s-.19.67-.4.89-.57.31-.79.52-.42.45-.65.66-.6.23-.84.43-.43.44-.67.62-.47.39-.72.58-.52.32-.77.49-.66.11-.92.28-.34.6-.6.76-.64.12-.9.27-.54.28-.81.42-.57.22-.84.35-.51.35-.79.48-.54.27-.83.38-.44.55-.73.66-.59.19-.88.28-.57.19-.86.27-.67-.29-1-.23-.49.59-.78.63-.62-.11-.92-.08-.6,0-.89,0-.61-.15-.91-.13-.58.15-.88.17-.58.36-.88.37-.6-.13-.9-.12-.6,0-.9,0-.59.29-.89.3-.6-.6-.9-.6-.59.1-.89.11-.57.21-.86.23-.57.29-.86.31-.59-.08-.88,0-.61-.3-.9-.27-.57.22-.86.24-.57.25-.86.27-.59-.19-.88-.18-.58-.16-.87-.17-.59.34-.88.32-.55-.39-.84-.43-.61.18-.89.12-.61,0-.89-.07-.46-.47-.74-.56-.53-.22-.8-.33-.57-.11-.84-.23-.63,0-.89-.15-.41-.47-.66-.61-.56-.18-.81-.33-.54-.24-.78-.4-.43-.41-.66-.58-.69-.1-.93-.3-.18-.7-.39-.92-.32-.51-.51-.74a7.56,7.56,0,0,1-.6-.67c-.17-.25-.2-.56-.35-.82a6.43,6.43,0,0,1-.42-.77c-.11-.26-.42-.44-.53-.71s-.37-.47-.48-.74-.4-.46-.51-.72,0-.65-.08-.91-.2-.55-.33-.8-.21-.55-.36-.8-.62-.29-.78-.53.09-.79-.09-1a8.38,8.38,0,0,0-.68-.56,6.08,6.08,0,0,0-.61-.63c-.22-.17-.73.09-1-.06s-.26-.63-.52-.77-.67,0-.9-.13-.2-.7-.43-.86-.7,0-.93-.16-.5-.26-.72-.43-.11-.8-.33-1-.79,0-1-.13-.15-.74-.37-.93l-.65-.59L41.75,78c-.2-.22-.36-.45-.55-.67s-.75-.17-.92-.41-.45-.42-.61-.67-.18-.59-.33-.85,0-.67-.12-.94-.42-.44-.55-.72-.35-.49-.46-.76-.41-.48-.52-.78.07-.65,0-1-.43-.48-.52-.78.37-.72.29-1-.6-.46-.66-.76,0-.62-.05-.92-.24-.57-.29-.87.39-.65.37-1-.53-.57-.54-.87.1-.62.11-.92-.08-.63,0-.93.62-.49.69-.77-.11-.67,0-.94.55-.35.72-.6a3.7,3.7,0,0,1,.51-.67c.24-.24.23-.75.48-.85s.63,0,.93,0a6.48,6.48,0,0,1,.85.19c.29.05.61-.13.91-.11s.51-.15.81-.22A1.66,1.66,0,0,0,43,59c.25-.19.62-.24.78-.52a4.66,4.66,0,0,0,.45-.86,9.22,9.22,0,0,0,.23-.94c0-.31-.28-.68-.25-1s0-.63,0-1,0-.65.06-.95.33-.63.39-.92.39-.51.44-.8-.33-.66-.27-.95.38-.51.46-.79.08-.58.16-.86.09-.59.19-.86.61-.37.73-.63-.17-.75,0-1,.29-.53.46-.76.51-.36.72-.56.65-.24.88-.42.27-.83.53-1A3.79,3.79,0,0,1,50,44c.33-.06.65.29,1,.34a2.48,2.48,0,0,1,.87.25,3.87,3.87,0,0,1,.69.61,7.28,7.28,0,0,1,.58.72,7.31,7.31,0,0,1,.56.75c.16.25.31.5.46.79s.43.45.57.74.07.63.2.92.6.43.71.72,0,.67.06,1,.21.58.3.88.13.61.22.91,0,.64.08.94.58.49.65.79-.12.67,0,1,.39.55.46.85-.23.7-.17,1,.6.51.67.8-.26.7-.2,1,.25.59.31.89.49.55.54.84-.37.72-.32,1,0,.66.09.93.18.71.24.91.61.45.69.74-.16.68-.07,1,.4.51.49.8-.14.68,0,1,.66.41.76.69,0,.62.15.9-.05.67.07,1,.39.49.5.77.32.52.44.79.06.64.19.91.68.33.82.6.05.65.2.91.1.63.25.89.34.51.49.76l.49.77c.17.25.7.24.88.49s.08.67.27.91.54.34.73.57,0,.75.24,1,.48.39.69.61.64.22.86.43.5.34.73.54.45.38.69.57.4.46.64.64.26.68.51.86.81-.14,1.07,0,.24.79.5.94.77-.16,1,0,.35.67.63.8.67,0,1,.1.52.34.8.44.52.41.81.49.71-.3,1-.23.56.25.86.3.6,0,.9,0,.59.22.89.23.61.27.91.27.61-.17.91-.18.6-.21.9-.24.64.23.93.19.57-.34.87-.39.56-.29.85-.34.69.31,1,.23.51-.44.8-.53.69.17,1,.07.57-.24.85-.35.52-.33.79-.46.6-.16.87-.31.31-.67.58-.83.52-.28.78-.45.72,0,1-.17.18-.78.43-1a8.6,8.6,0,0,1,.84-.33c.25-.15.54-.23.79-.35s.49-.39.76-.48.62.06.9,0a8.53,8.53,0,0,1,.87,0,7.72,7.72,0,0,1,.83-.2c.29,0,.57,0,.86,0s.56.06.85.08.74-.21,1-.12a2,2,0,0,1,.76.65c.21.24,0,.61.08.92s.37.58.32.9a5.54,5.54,0,0,1,0,1c-.1.29-.75.36-.88.64s-.09.66-.24.91-.14.57-.31.79-.61.23-.78.44-.36.42-.53.63-.26.51-.41.73-.07.61-.2.84-.68.48-.76.8.31.77.18,1.08-.6.39-.79.65-.11.73-.32,1-.5.43-.7.66-.33.62-.57.83a9.19,9.19,0,0,1-.76.64c-.26.19-.85-.11-1.12.06s-.53.34-.81.5-.53.37-.81.52-.36.69-.64.85-.61.17-.88.31-.47.43-.74.57-.62.14-.9.27-.63.11-.91.24-.54.28-.82.39-.54.32-.82.43-.5.46-.79.56l-.93.31c-.31.09-.78-.32-1.09-.22s-.54.42-.85.53-.73-.06-1,.07-.46.56-.74.72-.47.38-.74.5-.56.2-.84.29-.58.15-.86.22-.61-.07-.9,0-.56.24-.86.27-.59-.1-.88-.09-.59.38-.88.38-.6-.1-.89-.12-.58-.25-.87-.28-.58,0-.87-.09-.55-.34-.84-.38-.63.19-.91.13-.54-.28-.82-.34-.58-.23-.89-.3l-.92-.19c-.3-.07-.66.09-1,0s-.69.11-1,0-.55-.39-.84-.49-.68,0-1-.16-.31-.79-.58-1-.72,0-1-.19-.65-.24-.87-.45-.13-.74-.32-1"/><path class="cls-7" d="M61.59,112.25c0-.26,0-.52,0-.78s-.12-.53-.11-.79-.15-.54-.13-.8.43-.49.45-.75-.09-.53-.07-.79,0-.53,0-.79,0-.52,0-.78.36-.52.37-.78-.39-.52-.4-.78.38-.55.36-.81-.29-.5-.33-.76a5,5,0,0,0,0-.78c-.06-.25-.31-.45-.39-.69s0-.56,0-.8-.21-.47-.29-.71,0-.5-.09-.75a4.46,4.46,0,0,1-.18-.72c0-.26,0-.53,0-.8s-.47-.51-.48-.78,0-.54,0-.8.29-.45.32-.7c.26.07.47,0,.73.09s.55.08.8.18.35.57.6.68.59,0,.84.09.45.34.69.45.55.1.79.21.55.09.8.19.36.53.61.64.62-.08.87,0,.52.14.77.25.41.42.66.52.42.4.67.5.56.06.81.15.45.37.71.45.59-.1.85,0,.48.36.75.42l.81.16c.27,0,.58-.16.85-.12s.51.33.78.36.58-.4.86-.38.52.48.79.49.55-.26.82-.26.55.06.82,0,.52-.33.79-.35.6.43.87.4.5-.35.77-.39.57.09.84,0,.52-.2.78-.26.54-.09.81-.16.5-.22.76-.3.55-.07.81-.16.53-.14.79-.24.48-.27.73-.37.53-.16.78-.28.35-.51.6-.63.45-.29.69-.42.71.15,1,0,.34-.49.57-.64a2.64,2.64,0,0,0,.79-.22c.2-.12.33-.42.57-.56s.36-.46.6-.58.59,0,.83-.11a2.72,2.72,0,0,1,.76-.12c.31,0,.65-.11.8.09a1.38,1.38,0,0,1,.11.84"/><path class="cls-3" d="M52.28,57.17c.07-.29-.09-.62,0-.92s.16-.57.21-.86.56-.52.6-.82,0-.61,0-.9,0-.6.06-.9-.09-.61-.06-.91.36-.57.39-.87-.35-.62-.33-.92.36-.58.38-.87-.27-.63-.25-.92-.07-.61,0-.91.39-.56.42-.86.26-.56.31-.86.09-.58.14-.87-.17-.64-.1-.93,0-.63,0-.93.22-.56.29-.86.48-.49.56-.79,0-.61.14-.9.33-.53.42-.82.08-.6.18-.89,0-.65.08-.94.38-.5.49-.79-.11-.69,0-1,.11-.62.23-.9.58-.41.71-.69.07-.64.2-.91.12-.63.25-.9.36-.51.5-.78.61-.36.76-.63.1-.64.26-.9.53-.39.7-.64.32-.51.49-.76.2-.6.39-.85.25-.57.44-.81.59-.3.79-.53.45-.41.66-.63.19-.67.4-.88.65-.2.88-.4.23-.68.47-.86.76,0,1-.17.39-.5.65-.66.56-.28.83-.42.49-.43.77-.57.51-.4.8-.53.67,0,1-.15l.87-.35c.29-.11.6-.18.9-.29s.54-.33.84-.44.52-.39.82-.49.75.23,1,.13.63-.11.93-.22.48-.51.77-.62.43-.48.71-.59.72.2,1,.09.47-.42.73-.54.58-.14.85-.26.46-.42.74-.53.66,0,.93-.06.39-.62.67-.72.73.31,1,.23.54-.21.82-.28.56-.21.87-.26a8.72,8.72,0,0,1,.89-.16c.3,0,.6-.08.9-.09s.61-.07.92-.07.6,0,.91,0,.62,0,.92,0,.64-.09.94,0,.59.24.89.31.57.22.87.31.61.12.9.22.55.29.83.4.49.39.77.52.53.28.8.43.56.26.81.42.41.46.66.65.45.38.68.59.83,0,1.06.21.18.7.4.92.33.53.55.75.53.34.74.57.26.59.46.83.52.36.72.6.44.43.63.67.24.59.43.84.7.26.88.51.27.57.44.83.26.57.42.83.29.55.44.82.59.39.73.66.17.62.3.89,0,.68.15,1,.11.62.22.9.51.47.61.76-.07.64,0,.93.11.59.17.88.15.57.2.87.23.56.28.86.38.53.44.83.09.59.15.88-.29.68-.22,1,.5.49.59.78.31.57.38.87-.4.72-.34,1,.36.55.41.86-.05.63,0,.94.26.59.3.89,0,.63,0,.94.46.57.49.88-.18.64-.15,1,0,.62,0,.93-.17.64-.14,1,.51.57.55.88,0,.62,0,.93,0,.63,0,.93.22.47.27.78c.31,0,.51-.09.8-.06s.62.13.91.17.53.49.81.56.67-.13,1,0,.45.5.72.62.73-.07,1,.08a6.92,6.92,0,0,1,.74.57,8.09,8.09,0,0,1,.74.57,10.68,10.68,0,0,1,1,1.58c.14.26,0,.63.16.92s.33.51.42.8.28.55.35.85.1.6.14.9-.27.63-.24.94.47.56.49.87-.18.6-.17.91-.25.59-.26.9.23.6.22.9-.26.59-.28.89,0,.6,0,.91.29.62.25.92-.49.51-.56.81.37.72.28,1-.44.49-.54.77-.44.46-.57.73-.33.48-.47.75,0,.71-.12,1-.61.29-.79.53-.33.48-.54.7a7.45,7.45,0,0,1-.67.57,7.28,7.28,0,0,1-.63.61c-.24.17-.49.29-.75.44s-.57.21-.86.34-.44.58-.74.69-.65,0-1,.14-.67,0-1,.08-.58.28-.87.4a8.76,8.76,0,0,0-.89.37c-.28.13-.36.64-.63.82s-.51.34-.76.53-.55.31-.79.52-.55.32-.77.54-.4.5-.61.73-.39.49-.6.73-.59.33-.79.58-.09.72-.27,1-.44.46-.62.72-.42.48-.59.73-.49.41-.69.65-.23.63-.45.85-.48.41-.71.62-.42.48-.67.67-.67.14-.92.32-.39.55-.65.72l-.81.48c-.27.15-.51.39-.79.53s-.78-.17-1.06,0-.49.41-.77.54-.45.54-.74.66-.66,0-1,.13-.49.47-.78.58-.62.12-.92.22-.67,0-1,.05-.61.12-.91.21-.53.39-.83.47-.7-.18-1-.1-.5.58-.8.65-.7-.25-1-.18-.59.22-.89.29-.61.15-.91.21-.63,0-.93,0-.56.23-.85.27-.57.32-.86.34-.6.19-.89.2-.61-.08-.9-.09-.58-.38-.87-.4-.6.07-.89,0-.53-.33-.82-.39-.57-.1-.85-.18-.63,0-.91-.05-.48-.38-.75-.49-.64,0-.91-.13-.66,0-.93-.15-.3-.67-.56-.82-.44-.4-.69-.57-.74,0-1-.16-.33-.6-.57-.78-.53-.31-.77-.5-.68-.13-.92-.33-.2-.7-.43-.91-.41-.45-.64-.65-.78-.06-1-.28L64,85.43c-.21-.22-.31-.55-.52-.78s-.2-.64-.41-.86l-.61-.68c-.2-.24-.37-.49-.56-.73s-.51-.37-.7-.61-.43-.44-.61-.69-.34-.51-.52-.76-.15-.63-.32-.89-.71-.26-.88-.52.14-.81,0-1.07-.82-.23-1-.49-.14-.63-.29-.89-.52-.42-.66-.69,0-.7-.16-1,0-.68-.15-1-.67-.37-.79-.66-.06-.66-.18-.94-.52-.47-.63-.76-.08-.64-.18-.94-.24-.58-.34-.88l-.27-.89c-.09-.3.15-.7.06-1s-.51-.5-.6-.8.3-.71.21-1-.73-.41-.82-.69.22-.7.13-1-.47-.49-.56-.78.1-.66,0-1,0-.61-.06-.91-.3-.55-.35-.85.09-.61.06-.91-.43-.59-.43-.89.13-.62.17-.92a7.54,7.54,0,0,1,.2-.89"/><path class="cls-8" d="M20.8,270.91a4.34,4.34,0,0,1-.37-.63c-.1-.24-.52-.36-.59-.62s.06-.54,0-.8.11-.53.09-.8-.53-.47-.54-.73.26-.54.24-.8-.19-.51-.21-.77.14-.54.12-.79-.14-.51-.17-.76-.09-.53-.12-.79,0-.54,0-.8-.25-.51-.27-.77,0-.54,0-.81.29-.55.28-.81-.37-.51-.39-.78.18-.54.17-.8.13-.53.13-.8,0-.53,0-.79-.05-.54-.06-.8-.43-.52-.45-.79.26-.54.25-.8-.17-.53-.19-.79-.25-.52-.26-.78.06-.54,0-.8.18-.55.16-.81-.13-.53-.15-.79.19-.55.17-.81-.11-.52-.13-.79,0-.53,0-.8,0-.53,0-.79.09-.53.09-.8-.21-.52-.21-.79-.12-.53-.12-.8.28-.52.29-.78-.12-.54-.1-.8.2-.51.22-.78,0-.54,0-.8-.07-.54-.06-.81-.12-.53-.11-.8-.08-.53-.07-.79-.08-.53-.07-.8.23-.53.23-.79,0-.53,0-.8-.12-.53-.12-.79-.09-.53-.09-.79.14-.53.14-.8.11-.53.1-.8-.18-.52-.19-.79.31-.54.31-.8-.07-.53-.08-.8-.24-.53-.24-.79,0-.51,0-.76,0-.51,0-.77.25-.5.26-.76.17-.5.17-.76-.49-.51-.49-.76,0-.51,0-.76.3-.51.29-.77-.3-.49-.32-.74.16-.53.12-.78.18-.57.13-.82-.44-.43-.5-.68-.13-.51-.18-.76.29-.56.26-.82-.2-.52-.2-.8a7.8,7.8,0,0,1-.09-.83c0-.28-.17-.57-.15-.85s.5-.5.54-.78-.09-.57-.05-.84,0-.56,0-.84-.09-.56-.06-.84.46-.51.48-.79-.13-.54-.11-.8-.16-.54-.15-.81.32-.51.33-.78-.3-.54-.29-.8,0-.53,0-.79.06-.53.06-.8.18-.53.18-.79,0-.53,0-.79-.19-.53-.2-.79-.14-.57-.15-.82.08-.58.06-.82,0-.62,0-.84c-.09-.51-.27-.54-.37-.58s-.37.28-.53.28-.05-.1-.08-.69a6.59,6.59,0,0,1-.16-.8c0-.24-.13-.52-.13-.83s.28-.52.29-.82-.12-.52-.11-.79.23-.51.24-.77-.33-.53-.32-.79.25-.52.25-.78.13-.51.14-.77-.21-.53-.2-.79.05-.52.07-.78-.09-.52-.08-.78.13-.51.15-.77-.23-.53-.21-.79.33-.5.35-.76.09-.51.11-.77-.22-.54-.2-.8.18-.51.2-.77.12-.54.15-.82.28-.52.32-.79-.05-.56,0-.83-.09-.58-.06-.85.1-.54.14-.81.2-.54.23-.81-.06-.56,0-.84.36-.52.38-.8-.11-.56-.11-.84-.15-.57-.15-.85.19-.57.19-.85-.33-.56-.34-.85.21-.57.2-.85-.15-.56-.16-.85,0-.56,0-.84.26-.58.25-.86-.36-.56-.36-.84-.06-.55-.06-.82.2-.54.2-.82.1-.54.09-.82-.37-.53-.38-.8.41-.56.4-.83-.42-.53-.43-.8.37-.56.36-.83-.16-.54-.17-.81-.06-.54-.07-.82.08-.54.07-.81.1-.55.09-.82-.12-.54-.13-.82,0-.54,0-.81-.21-.54-.22-.81-.15-.54-.16-.81.22-.55.21-.82.19-.55.18-.82-.47-.53-.48-.81.47-.55.46-.82-.21-.54-.21-.81,0-.54,0-.82.13-.54.12-.81-.1-.54-.1-.82-.3-.54-.29-.81.4-.54.4-.82,0-.54,0-.82-.28-.54-.28-.81.26-.56.25-.83-.33-.53-.34-.8,0-.55,0-.82-.21-.53-.22-.81-.12-.53-.13-.8.05-.55,0-.83,0-.54,0-.82,0-.54,0-.81.3-.57.28-.84-.43-.52-.45-.79.06-.55,0-.83.24-.55.23-.83-.41-.52-.42-.79-.11-.55-.12-.82,0-.55,0-.82.39-.55.39-.82-.15-.54-.14-.82.17-.53.19-.8-.38-.57-.36-.84.49-.51.51-.78-.18-.55-.14-.82-.17-.58-.12-.84.55-.43.61-.69-.24-.61-.16-.87.56-.39.64-.65.08-.53.17-.78.17-.51.27-.76-.16-.64-.05-.89.32-.45.43-.69.23-.49.35-.73.31-.45.44-.68.46-.35.6-.58.23-.49.38-.71.21-.52.38-.74.22-.52.39-.73.34-.43.52-.63.38-.38.56-.59.68-.13.85-.34,0-.67.2-.88.55-.23.72-.43.35-.38.53-.57.38-.35.57-.53.19-.56.39-.74.59-.09.8-.26.39-.33.6-.49.2-.62.42-.77.41-.34.63-.48.46-.27.69-.4.46-.27.7-.39.64.12.87,0,.51-.14.75-.23.47-.2.72-.29.51-.08.76-.15.5-.19.75-.27.39-.5.63-.59.62.16.86.07.51-.14.75-.24.35-.55.59-.65.47-.22.71-.32.62.14.86,0l.71-.34c.23-.1.45-.27.68-.38s.46-.25.69-.36.52-.13.75-.24.5-.16.74-.27l.72-.33c.25-.11.48-.25.73-.37l.74-.34c.25-.11.34-.56.59-.68s.55-.08.8-.2.5-.2.75-.32.52-.18.76-.29l.75-.32c.25-.12.54-.14.78-.25s.38-.49.62-.6.63.13.89,0,.39-.46.64-.55.55,0,.81-.13.39-.51.65-.59.55,0,.81-.12l.75-.29c.25-.1.53-.12.77-.22s.4-.41.64-.53.48-.21.71-.35.56-.11.78-.27.32-.44.52-.63a6.11,6.11,0,0,0,.63-.51c0,.26-.24.53-.26.8s.07.53,0,.8-.08.53-.1.8.16.55.15.81.14.54.13.81-.21.53-.21.8.1.54.1.81-.21.55-.19.81.06.54.09.81.41.49.45.75-.27.6-.21.86.42.45.49.71-.17.62-.08.87.35.45.45.7.49.35.61.58.26.44.39.67,0,.6.16.82.39.36.55.57.36.38.52.59l.5.6c.16.21.06.64.23.84s.63.14.81.33.09.63.27.82.45.3.63.49.49.26.67.45.48.27.66.46.09.64.27.83.45.28.63.47.39.37.58.56.35.41.54.59.28.49.48.67.66.07.85.25.24.54.44.72l.61.52c.21.17.4.36.61.52s.31.48.52.64.64,0,.86.2.24.6.46.75.61,0,.84.19.37.41.6.55.43.32.66.46.6,0,.83.16.38.43.62.55.58,0,.82.15.31.61.56.71.58.14.82.24c.23-.16.56-.28.76-.45s.17-.63.36-.82.64-.16.81-.37.34-.45.5-.67.1-.59.25-.82.53-.32.67-.55,0-.62.15-.86.51-.33.64-.57.09-.58.22-.82.32-.45.45-.69.11-.57.25-.81.23-.51.38-.74.51-.31.67-.54.38-.4.54-.62.14-.57.3-.8.63-.22.78-.45.28-.48.44-.7-.06-.7.09-.93.56-.24.69-.46.28-.43.4-.65.28-.42.41-.63.15-.51.31-.7.28-.57.51-.75.67-.07.9-.24.27-.6.49-.78.69-.09.88-.28.41-.42.59-.63.35-.46.52-.69.22-.53.37-.78.44-.39.58-.65,0-.62.12-.88.22-.48.34-.71.44-.36.57-.59.31-.42.44-.65,0-.62.08-.85.22-.47.34-.7.56-.31.67-.55-.25-.67-.16-.91.31-.43.39-.68.53-.39.59-.65-.17-.57-.12-.83,0-.56,0-.85.4-.54.42-.82-.19-.58-.18-.87-.14-.57-.15-.85.06-.57.05-.85.11-.58.1-.86.15-.58.14-.86-.46-.5-.48-.76a7.54,7.54,0,0,1,.06-.81,3.62,3.62,0,0,1,.08-.8,2.2,2.2,0,0,1,.39-.67c.23.16.35.39.57.56s.33.43.53.61.5.25.69.45.43.34.61.55.55.27.71.49.07.63.22.86.18.52.32.76.39.4.52.64.36.42.49.67.13.54.25.79.22.5.33.74.21.51.33.76.1.55.21.8.34.45.45.7.29.47.41.72.39.42.51.66.32.45.46.69,0,.62.15.86.2.53.35.75.67.2.83.42.06.65.24.86.63.1.82.32.2.49.37.68.39.34.57.51a2,2,0,0,0,.59.38c.22.1.39.39.66.4a6.6,6.6,0,0,0,.77,0c.27,0,.53-.21.76-.2a6.25,6.25,0,0,1,.87.08,7.76,7.76,0,0,1,.82.25c.27.09.6,0,.87.11s.49.3.76.4.36.53.61.63.5.15.74.25.51.15.75.25.61-.08.85,0,.29.62.52.73.63-.08.86,0,.35.47.58.59.57.06.8.18.37.42.6.55.61,0,.84.12.26.6.49.73.58,0,.81.18l.68.39c.23.14.3.52.52.66s.64,0,.86.12.5.2.72.35.16.72.37.86.7-.09.92.06.22.61.43.76.45.31.69.46.6,0,.84.19.46.29.7.42.4.41.64.54.43.35.67.48.58.07.82.21.54.17.77.31.36.48.59.62.43.34.65.49.53.21.74.37.31.48.52.66a7.68,7.68,0,0,1,.59.55c.19.2.58.21.75.43a8.2,8.2,0,0,1,.57.62c.14.24,0,.61.13.87s.43.44.5.71.08.54.12.81a7.67,7.67,0,0,1-.05.82c0,.26-.12.54-.11.81s.29.53.29.8.06.54.06.81-.31.52-.33.79,0,.54,0,.81,0,.54,0,.81.18.55.17.81,0,.55,0,.81-.06.54-.07.8-.06.53-.06.79-.3.53-.31.8.15.54.13.81l0,.81c0,.26-.14.52-.16.79s.18.55.16.82-.53.5-.55.77.12.54.1.81.19.54.18.81-.36.53-.36.8.35.54.36.8-.09.54-.07.81.12.53.14.8-.23.58-.2.85.24.52.28.79,0,.54.09.81-.08.55-.05.82,0,.55.07.82.09.53.13.8.52.48.56.75-.07.55,0,.82,0,.55,0,.82,0,.55,0,.82l.09.81c0,.27.45.49.48.76s-.17.57-.14.84.29.51.32.78-.46.6-.44.87.45.5.48.77,0,.54.05.81-.26.56-.24.83.13.54.14.81.26.53.27.81-.34.53-.34.79.47.51.47.78-.29.53-.29.79-.13.53-.12.79.47.51.48.77-.22.53-.21.79-.18.53-.17.79-.08.53-.08.79,0,.52.05.78.53.51.53.77-.23.53-.22.8,0,.52,0,.78.27.52.27.78-.37.53-.37.79.09.52.09.79,0,.52,0,.78.23.52.23.78.11.52.12.79,0,.52,0,.78-.38.53-.38.79.18.52.18.79.11.54.11.81,0,.54,0,.81,0,.54,0,.81,0,.54,0,.81-.5.52-.51.79.15.55.14.82.27.55.26.82-.13.53-.15.8-.29.53-.31.8.06.54,0,.81-.25.53-.26.8.14.54.13.81.22.56.21.82-.12.54-.13.81.14.55.12.81-.33.53-.34.8,0,.54,0,.8.21.55.2.82-.08.54-.09.81-.35.53-.35.8.23.54.23.81,0,.54,0,.81.15.54.15.81-.21.54-.21.81v.8c0,.68.08.66.09.3,0-.19.06-.47.06-.8s-.31-.53-.31-.8,0-.55,0-.81.17-.61.15-.81.14-.34,0,.3a5.71,5.71,0,0,0-.23.77c0,.27-.42.5-.45.76s.47.6.44.86-.34.51-.37.77-.3.51-.33.78,0,.55,0,.81,0,.55,0,.82-.23.51-.26.78.43.59.4.85-.32.51-.34.78.06.55,0,.82-.19.52-.21.79.09.55.07.82,0,.54-.06.81-.39.51-.41.78.32.56.3.83-.11.54-.13.8.11.55.09.82-.45.51-.47.78.15.55.13.82.25.56.23.83-.51.51-.53.78.19.55.18.82.11.54.1.81.07.54.06.81,0,.55,0,.82-.07.54-.08.82,0,.54,0,.81-.25.54-.25.82-.17.54-.18.81.27.56.26.83,0,.55,0,.82-.06.54-.07.82-.14.54-.15.82v.82c0,.27-.22.54-.22.82s.07.54.07.82,0,.54,0,.82.12.55.12.82.13.55.13.82-.27.55-.27.82.33.55.33.82,0,.55,0,.83v.82c0,.27-.3.54-.3.81s.06.55.06.82.31.55.31.82-.08.54-.08.8,0,.54,0,.8-.39.52-.4.79.11.53.1.8-.15.52-.17.79.35.55.33.82-.14.52-.16.79-.15.52-.17.79-.12.52-.14.79.3.56.28.82-.51.49-.53.76-.05.53-.08.79.06.54,0,.8-.1.53-.12.79.13.55.11.82-.18.51-.2.78.1.54.08.81-.1.52-.12.79-.23.51-.25.78,0,.53,0,.8,0,.53,0,.79.16.54.15.81-.15.53-.16.79.35.54.35.81-.51.52-.51.79.28.53.28.8-.11.53-.1.8-.08.53-.06.8.24.53.23.81-.25.51-.28.79.05.54,0,.82a7.66,7.66,0,0,1,0,.83c-.06.27-.25.5-.33.76s0,.57-.14.83-.27.48-.38.73a8.19,8.19,0,0,1-.47.68c-.13.24-.39.4-.54.62s0,.68-.2.88-.67.11-.87.29a4.14,4.14,0,0,1-.6.52,3.91,3.91,0,0,1-.7.37,3.07,3.07,0,0,1-.6.22c-.07-.24-.39-.27-.44-.56s0-.54,0-.83.22-.54.21-.82-.24-.51-.25-.79.11-.53.1-.81,0-.53,0-.81.08-.53.08-.81-.14-.53-.14-.81-.13-.53-.12-.81,0-.53,0-.81-.09-.53-.08-.8.48-.53.48-.8-.38-.54-.38-.81.12-.54.12-.81-.07-.54-.07-.81.07-.54.07-.81,0-.54,0-.81,0-.54,0-.81.05-.54,0-.81.15-.55.14-.82-.44-.52-.46-.78,0-.55,0-.82-.17-.52-.21-.78.38-.6.34-.86-.38-.5-.42-.76,0-.56,0-.82.08-.58,0-.84-.49-.43-.57-.68-.16-.51-.26-.76.13-.66,0-.9-.42-.41-.56-.64-.43-.36-.6-.56a5.07,5.07,0,0,0-.55-.58c-.2-.18-.27-.57-.5-.71s-.67.16-.92.06-.38-.6-.66-.65a3.82,3.82,0,0,0-.81-.1,4.31,4.31,0,0,0-.76.27c-.24.06-.38.43-.62.52s-.48.13-.71.25-.56,0-.78.13-.51.09-.74.19-.37.38-.61.45a7.05,7.05,0,0,1-.8.15c-.26.06-.53,0-.8.07s-.5.36-.77.39-.54,0-.82,0-.54.12-.82.12-.55-.06-.82-.08-.57.15-.83.11-.48-.5-.75-.55a6.86,6.86,0,0,1-.79-.14A6.91,6.91,0,0,1,110,245c-.25-.12-.44-.31-.68-.45s-.7.11-.93,0l-.69-.45c-.23-.15-.39-.41-.62-.56s-.55-.14-.78-.28-.39-.42-.63-.54a7.33,7.33,0,0,0-.72-.3c-.24-.1-.4-.45-.65-.53s-.51-.14-.77-.2-.57.16-.83.11-.46-.4-.72-.43-.54.06-.8,0-.55.28-.81.26-.51-.12-.77-.14-.52-.08-.79-.09S98.25,241,98,241s-.54.43-.81.42-.53-.06-.79-.06-.53,0-.8,0-.53-.24-.8-.24-.53-.08-.8-.07-.51.45-.78.46-.55-.45-.81-.43-.53.07-.79.08-.54,0-.8,0-.53.11-.79.12-.52.16-.79.18-.52.18-.78.2-.52.12-.79.14-.52.07-.79.09-.54-.15-.8-.13-.54-.05-.8,0-.52.23-.78.25-.53.07-.8.09-.53.09-.8.11-.53,0-.8,0l-.8.07-.8.06c-.26,0-.54-.11-.81-.09s-.52.12-.79.13l-.8.08-.79.08c-.27,0-.56-.28-.82-.26s-.51.34-.78.36l-.79.07c-.27,0-.53.13-.79.15s-.55-.2-.82-.18-.54-.08-.81,0-.51.22-.78.24-.56-.29-.82-.26-.52.17-.79.2l-.79.07c-.27,0-.5.4-.76.43s-.56-.21-.83-.18-.52.11-.78.14-.52.17-.78.21-.56-.16-.82-.13-.52.14-.79.18-.5.21-.77.25-.57-.19-.83-.15l-.8.12-.8.11c-.26,0-.48.36-.74.4s-.58-.16-.84-.12-.47.47-.73.51-.59-.25-.85-.2-.51.24-.77.28-.5.26-.77.3-.54,0-.81,0-.56-.11-.82-.07l-.8.12c-.26,0-.51.16-.78.2s-.56-.14-.82-.1-.51.24-.78.27-.49.44-.75.47-.55,0-.82,0-.53.07-.8.09-.56-.36-.83-.34-.52.29-.79.31-.54-.23-.81-.22-.53,0-.8,0-.53.21-.8.21-.51-.21-.81-.23-.56.27-.85.25-.54-.18-.82-.21-.57.24-.85.22-.55,0-.83,0-.55-.1-.83-.1-.57-.3-.84-.28a7,7,0,0,0-.82.19,5.34,5.34,0,0,0-.84.11,2.72,2.72,0,0,0-.76.39,1.76,1.76,0,0,0-.63.64c-.1.24,0,.58,0,.88a6.06,6.06,0,0,0,0,.84,7.78,7.78,0,0,0,0,.84c0,.28-.13.58-.09.86s.1.57.14.84-.06.59,0,.86.58.56.58.8-.54.51-.55.76.24.51.23.76.23.51.22.76-.25.5-.26.75.18.51.16.76-.29.49-.3.74-.07.51-.08.76,0,.53-.07.79.13.55.1.82-.35.49-.39.75.07.55,0,.81-.14.52-.19.78-.07.53-.12.8-.11.52-.17.78.21.59.15.85-.23.5-.28.76,0,.57-.06.83-.37.48-.44.75-.14.53-.21.79.17.61.1.87-.23.51-.29.77-.36.48-.42.75-.07.54-.11.81,0,.55,0,.83,0,.54,0,.81-.24.41-.23.69c-.24-.07-.38.08-.62,0s-.47-.27-.71-.3-.51.21-.76.2-.48.1-.73.1-.51-.49-.76-.48-.53.5-.8.52S29,273,28.7,273s-.55.17-.81.2-.55.11-.82.15-.52.32-.79.35-.59-.35-.86-.33-.55.46-.81.45-.52-.38-.79-.44-.63.18-.89.07a4.43,4.43,0,0,1-.72-.47,5.09,5.09,0,0,1-.69-.51c-.18-.18,0-.69-.21-.92s-.34-.39-.51-.63"/><path class="cls-9" d="M96.86,107.44c0,.32.12.68.17,1.06s.45.48.51.75,0,.55,0,.81.28.48.36.75,0,.55.12.81.06.56.16.82.25.49.36.73.32.46.44.7.46.36.6.6.27.46.42.69-.11.71,0,.94.48.34.63.56.1.61.27.83.55.26.72.47.42.36.6.57l.52.63.54.61c.18.2.25.52.44.71s.48.3.68.49.29.48.49.67.62.15.81.33.35.43.54.62.28.51.49.69l.61.54c.21.18.26.53.46.71s.58.16.79.33.31.45.52.62.36.39.57.55l.65.45c.22.15.55.12.78.27s.57.08.79.22.34.43.56.57.55.13.77.27.16.71.39.85.61,0,.83.17.54.13.76.28.23.6.44.75.48.24.69.39.5.22.71.38.29.48.49.65.41.33.6.5.64.09.83.27.29.47.47.66.14.57.3.78.65.17.8.39.14.55.27.77.22.48.33.72,0,.58.07.82.67.31.75.56-.24.63-.17.89.55.39.62.64-.13.58-.07.83,0,.54,0,.8.27.48.32.74,0,.54,0,.8.28.48.33.74.24.5.28.76.06.52.1.78,0,.53,0,.79-.14.56-.09.81.24.5.29.75.21.49.26.75-.08.56,0,.82.23.49.29.75.16.51.22.77,0,.54.09.8,0,.55.05.81.43.44.49.7.22.49.29.74,0,.56,0,.82.2.5.26.76-.09.57,0,.83.35.46.42.71,0,.55.06.81.17.51.23.77,0,.54.11.79.39.45.46.71.25.48.32.74.13.51.2.77-.29.63-.22.88.29.48.35.74.31.47.37.73,0,.55,0,.81.1.52.16.78.07.53.13.79,0,.54.08.8.22.5.28.75.31.48.36.74.21.52.26.79.08.54.13.81-.15.59-.11.86,0,.56,0,.83l.12.81c.05.27.6.45.64.72s-.27.6-.22.87.36.49.41.76-.1.57-.05.84.37.48.42.75-.06.57,0,.84.05.54.11.81-.06.56,0,.83,0,.55,0,.82.44.48.48.75-.05.55,0,.82,0,.56,0,.83.34.5.38.77.12.53.16.81-.13.57-.08.84-.12.58-.07.85.54.45.6.72-.18.6-.12.86,0,.58,0,.84.33.49.41.74.07.57.16.82.32.66.43.91c.21-.14.36-.66.55-.85s.62-.14.78-.35.26-.48.4-.7.15-.52.27-.76.49-.36.6-.61,0-.58.05-.83.28-.47.36-.72-.06-.57,0-.82.46-.44.52-.69.13-.52.19-.78-.09-.56,0-.82.07-.53.12-.78.17-.52.22-.77,0-.55,0-.81.06-.54.1-.81.28-.5.31-.77-.3-.58-.26-.85.49-.49.52-.76-.28-.57-.26-.84.31-.52.33-.79-.14-.55-.12-.82.31-.52.32-.79-.21-.55-.21-.82.11-.54.12-.81-.35-.55-.35-.82.05-.53,0-.8.33-.55.32-.82-.18-.53-.19-.81,0-.54,0-.81-.11-.53-.12-.8.08-.55.06-.82-.13-.53-.15-.8,0-.54,0-.81.26-.56.24-.83-.23-.52-.25-.79-.1-.53-.12-.8.19-.54.18-.81-.17-.53-.18-.8-.22-.52-.24-.79.09-.54.07-.81.07-.54.05-.8,0-.54,0-.8-.43-.51-.45-.78.39-.56.37-.83l-.06-.8c0-.27.08-.55.06-.81s-.55-.5-.57-.77.08-.54.05-.81.17-.55.15-.82,0-.54,0-.81-.13-.53-.15-.8-.27-.51-.3-.78.08-.55.05-.81-.26-.52-.29-.78.2-.57.16-.84-.17-.52-.2-.78,0-.55-.05-.81-.07-.54-.11-.8-.3-.5-.34-.77.27-.58.23-.85-.21-.51-.26-.78,0-.55,0-.81-.06-.54-.11-.81-.1-.53-.16-.79-.07-.54-.13-.8-.23-.5-.29-.76-.07-.54-.13-.8-.06-.55-.13-.81-.6-.4-.67-.65.15-.61.08-.86-.49-.42-.57-.67.35-.68.27-.94-.59-.37-.68-.62.07-.6,0-.85-.46-.4-.56-.65-.26-.47-.36-.71-.18-.5-.3-.74.06-.64-.07-.87-.17-.55-.33-.77-.38-.4-.55-.61-.29-.48-.47-.68-.66-.11-.85-.3-.45-.29-.65-.47-.32-.44-.54-.61-.42-.32-.64-.47-.26-.6-.49-.74-.51-.21-.74-.35-.44-.32-.68-.45-.69.19-.94.07-.33-.55-.58-.66-.61.05-.85,0-.36-.54-.62-.64-.58,0-.83-.08l-.76-.27-.77-.25c-.25-.09-.48-.26-.73-.34s-.6.1-.86,0-.45-.37-.71-.45-.45-.35-.71-.43-.59.07-.84,0-.5-.23-.76-.31-.5-.19-.76-.27-.55,0-.8-.14-.57,0-.83-.08-.42-.46-.67-.55-.53-.13-.78-.22-.46-.32-.71-.41-.48-.25-.73-.35-.52-.13-.77-.24-.66.16-.9,0-.42-.39-.66-.51-.36-.46-.59-.59a7.91,7.91,0,0,1-.63-.52c-.23-.15-.66,0-.88-.2s-.3-.49-.5-.68-.38-.4-.57-.6-.48-.31-.66-.53-.47-.34-.63-.56-.3-.48-.46-.71-.08-.61-.23-.84-.45-.36-.6-.59,0-.64-.17-.88-.25-.49-.4-.73-.71-.2-.86-.43-.09-.6-.25-.83-.15-.55-.3-.74-.52-.26-.69-.45a6.75,6.75,0,0,0-.55-.53,4,4,0,0,0-.56-.54c-.26-.16-.55,0-.76,0s-.4-.07-.57.15-.41.31-.48.61.25.5.24.79-.46.49-.44.78"/><path d="M92,12.17C93.3,18.08,88.26,25.31,86,30.43A82.86,82.86,0,0,1,82.26,39c-1.71,3-3.87,5.54-5.76,8.4-.45.68.93,2.52,1.44,1.74a158.18,158.18,0,0,0,10.65-18c2.58-5.32,6.67-12.26,5.26-18.44-.25-1.08-2.29-2.36-1.88-.55"/><path d="M42.18,57.88C46.07,53.8,51.22,52,56,49.3c4.49-2.52,8.59-5.45,13-8.09L67.6,39.14c-2.69,3.7-7.1,6.32-10.3,9.55-.53.54.58,2.38,1.3,2.17,6.63-2,12.12-6.94,16.94-11.7L74,37c-2.4,4.41-6.25,7.7-9,11.84-.49.74.7,2.85,1.64,2.34C72.52,48,77.51,41.29,81,35.85A170.07,170.07,0,0,0,91.49,16.7c.44-.95-1.34-3.23-1.83-2.22a177.9,177.9,0,0,1-9.82,18.06c-3.55,5.58-8.66,12.82-14.67,16.11L66.82,51c2.7-4.18,6.5-7.5,8.86-12,.42-.79-.84-2.92-1.69-2.06-4.54,4.61-9.94,9.81-16.37,11.54l1.17,2.3c3.38-3.21,7.66-5.83,10.41-9.72.45-.63-.66-2.56-1.46-2.08-4.69,2.88-8.91,6.08-13.77,8.66s-9.42,4.63-13.11,8.61c-.5.53.69,2.27,1.32,1.61"/><path class="cls-10" d="M81.3,239.87c-12.12,1.51-24.12,4.5-36.33,5.28-3.08.2-6.4-.36-8.26,2.39-1.17,1.73-.61,2.47-.53,4.57.13,3.33.58,6.82.5,10.14-.06,2.48-2,5.17-4.68,3.34-3.88-2.71-2.54-11.4-3.23-15.48-.87-5.13-2.18-10-2.21-15.27,0-5.62.28-11.31.49-16.93.46-12.65-.07-9,1.88-21.49C29.84,190.57,31,185,30.83,179c-.09-3.44-1.45-6.56-2.74-9.69-1.07-2.59-1.32-5.06-2.05-7.7-.65-2.34-1.51-4.68-1.15-7.16.1-.67,2.47-6.25,3.76-5,3.31,3.12,3.72,9.08,5,13.18a32,32,0,0,0,3.73,7.69,23.61,23.61,0,0,0,2.32-1.12c4.58,4.46,5.27,13.05,6.64,18.89,2.45,10.39,2.87,2.69,1.88,13.3-.86,9.16-5.48,25.25,8.17,26.56,3.48.34,7.13-.61,10.59-.92a118.94,118.94,0,0,1,12.23-.47c9,.1,17.18,2.13,25.83,4.24,1.5.37,24.14,4.72,17.14,10.28-2.7,2.14-8.24,1.64-11.5,1.73-5.58.16-10.73-3.8-16.54-3.79a102.39,102.39,0,0,0-12.86.88"/><path d="M41.87,58.12c0-7.35-.87-14.07.66-21.33a29.66,29.66,0,0,1,11.52-18.4c6.06-4.77,12.27-8.12,20.07-9C81.73,8.57,90,9.34,96.41,14c1.64,1.2.85-2.21-.13-2.93C89.5,6.13,80.83,5.23,72.77,6.14c-8.29.93-14.82,4.57-21.34,9.63s-10,11.54-11.57,19.47a46.71,46.71,0,0,0-1,10.29c.07,3.95.93,7.66,1.23,11.54.07.81,1.78,2.57,1.78,1"/><path d="M93.86,13.88c-.4,2.89.59,6.4,1.25,9.22.89,3.82,2.1,7.62,3.25,11.38,2.2,7.21,4.72,13.76,10.15,19.11,1.3,1.28,1.42-1,.69-1.78-4.49-5-6.46-10.91-8.72-17.13-1.14-3.1-2.18-6.53-3.06-9.72-.71-2.62-2.07-6.82-1.82-9.55.07-.79-1.57-2.73-1.74-1.53"/><path d="M89.82,11.55c8-4.6,19.71,4.73,22.61,12.14,3.6,9.19.5,19-1.85,28-.2.78,1.23,3.19,2,2.12,3-4,3.68-10.6,4-15.46a30.81,30.81,0,0,0-3.06-16.87c-4-7.69-16.31-17.9-25.27-12.4-.92.57.56,3,1.5,2.5"/><path class="cls-11" d="M36,256.44a17.18,17.18,0,0,1-.95,2.27c-2.49-2.56-4.11-8.22-5-11.74a45.46,45.46,0,0,1-1.41-11.31c.1-9.15.37-18.32,2.13-27.33a83,83,0,0,0,1.64-10.16c.1-1.46-.16-2.93-.08-4.35.1-1.74.75,13.24,1,11.49.89-7.09.32-14.28-.63-21.34a34.47,34.47,0,0,1-.15-7.46,35.6,35.6,0,0,1,.58-5.78c1.42,1.35,2.29,3.52,3.11,5.28,1,2.12,2.11,3.86,2.1,6.3s-.85,4.79-1,7.21c-.27,4.41.6,8.79.38,13.19-.16,3.27-.42-10.28-.81-7-.32,2.64-1.29,5.57-1.16,8.2.22,4.06.94,8,.7,12.07a63.4,63.4,0,0,1-1.37,8.12,11.83,11.83,0,0,0-.25,4.15c.31,1.71,1.75,3.43,1.63,5.23-.23,3.5-3.6,3.69-2.21,7.64,2,5.78,4,12.39,1.25,18.33"/><path class="cls-3" d="M45.81,52.78c-1.65,3.35-.53,7.66.24,11.12a117.65,117.65,0,0,0,4,12.69c2.71,7.78,5.09,15.15,11.7,20.65s15.63,6.2,23.72,3.39c8.67-3,15.56-11.84,18.74-20.19,3.67-9.64,6.27-21.19,6-31.55,0-.55-1.12-1.66-1.15-.68-.35,8.83-2.2,17.38-4.37,25.88-2,7.79-6.72,16.72-13.53,21.4s-17.9,7.17-25.63,2.89c-6.73-3.72-11.2-11-13.35-18.2-1.09-3.67-2.4-7.23-3.57-10.89-1.33-4.19-3.86-11-1.91-15.36.21-.48-.69-1.69-.95-1.15"/><path class="cls-3" d="M108.72,60.24C110,57.66,113.93,54,116.63,57c2.22,2.47,1.3,6.6.3,9.29-1.8,4.85-6.29,13.54-12.72,12.2-.82-.18-.15,1.32.36,1.48,7.74,2.45,14.64-10.64,14.93-16.88.13-2.67-.83-6.53-3.22-8.07-3.5-2.26-6.9,1.4-8.14,4.54-.11.28.41,1,.58.7"/><path class="cls-3" d="M46.22,60.29c-2.41-1.35-6.91-4.56-9.35-2.15s-1.2,7.32,0,10.1c2.55,6,8.73,12.15,15.38,13.49.91.18.16-1.47-.4-1.65-5-1.56-10.51-5.43-12.91-10.13-1.09-2.12-3-6.24-1.59-8.64,2-3.45,6.3-1,9.07.14.58.24.12-1-.17-1.16"/><path class="cls-3" d="M59.77,92.43c1.42,6.11.55,12.49,1.89,18.58.16.72,1.48,1.56,1.23.36-1.27-6.15-.6-12.47-2.11-18.65-.14-.58-1.24-1.27-1-.29"/><path class="cls-3" d="M95.66,89.65c-1.07,1.75-.54,5.5-.55,7.58,0,3.38.32,6.79.13,10.17,0,.62,1.18,1.76,1.24.73.33-5.84-1.24-12.07-.22-17.85,0-.21-.39-1-.6-.63"/><path class="cls-3" d="M96.81,102.79c0,6.35-5.59,13.18-8.65,18.37S82.67,132.57,77,135.34c-.36.17,0,.87.15,1,4.3,4.6,8.34,10.18,9.72,16.44,0,.23.73,1.26,1,.73,6.5-13.33,16.31-24.5,22-38.11.21-.5-.71-1.69-1-1.16a112.83,112.83,0,0,1-10.79,19.2,132,132,0,0,0-11.24,18.9l1,.74a35.84,35.84,0,0,0-4.64-10.85c-1-1.58-2.58-2.86-3.46-4.48-1.25-2.3-.89-.57.26-2.23.82-1.19,2.38-2.2,3.29-3.38,3.25-4.18,5.73-9.51,8.38-14.06,2.51-4.29,6.06-9.57,6.06-14.74,0-.5-1-1.43-1-.59"/><path class="cls-3" d="M97,99.72a3.22,3.22,0,0,0,1,1,3.81,3.81,0,0,1,.43.37c.16.15.29.53.2.14a3.8,3.8,0,0,0,.45,1.26,3.43,3.43,0,0,0,.36.49c.08.09.77.81.28.27.37.41,1,.66,1-.1a2.73,2.73,0,0,0-.51-1.37c.16.33,0-.31-.06-.38a3.48,3.48,0,0,0-.39-.77,5.35,5.35,0,0,0-2.43-2.06.39.39,0,0,0-.46.14l-.06.06c-.22.22,0,.76.15,1"/><path class="cls-3" d="M99.64,102.73c2.08,5.41,6.21,8.47,9.43,12.73,1.08,1.42,1.63-.3.83-1.33-3-3.84-7.08-6.73-9.1-11.48-.37-.89-1.64-1.18-1.16.08"/><path class="cls-3" d="M59.8,105.6c.28,3.33-.06,6,.76,9.37a22.59,22.59,0,0,0,2.61,6c3.24,5.59,8.12,8.89,12.85,13,.88.77.73-.73.25-1.19-4.16-3.89-8.63-6.67-11.69-11.66s-3.13-9.32-3.81-14.92c-.05-.44-1-1.38-1-.57"/><path class="cls-3" d="M76.6,133.3c-3.46,1.63-4.95,5.87-6.88,9-1.84,3-4.72,6.34-5.54,9.76-.09.37.55,1.49,1,1a65.17,65.17,0,0,0,5.44-8.62c1.84-3.14,3.68-7.86,6.76-9.94.45-.3-.25-1.45-.74-1.22"/><path class="cls-3" d="M64.8,150.85c-4.22-4.12-7.32-11.37-9.54-16.73a62.76,62.76,0,0,1-3-9.41c-.76-3.14-.95-6.65-2.11-9.66-.18-.45-1.37-1.48-1.32-.38.32,7,2.64,14.24,5.36,20.64,2.32,5.5,5.7,12.9,10.35,16.79.95.8.75-.77.26-1.25"/><path class="cls-3" d="M49.64,116.11A12.2,12.2,0,0,0,55,113.89a14.84,14.84,0,0,0,4.54-4.42c.37-.63-.87-2.22-1.27-1.53a14.43,14.43,0,0,1-4.06,4,19.06,19.06,0,0,1-5.22,2.9c-.48.16.23,1.26.63,1.24"/><path class="cls-3" d="M103.37,109.67c6,2.34,11.68,5.58,17.58,8.17,4.65,2,13.18,5.27,14.13,11,.17,1.07,2.06,2.29,1.79.53-1-6.86-8.66-9.8-14-12.55A165.18,165.18,0,0,0,103,108.1c-.78-.27-.16,1.36.38,1.57"/><path class="cls-3" d="M134.39,129.39c-3.87,5.52-6.25,12.88-8.65,19.12-2.22,5.79-3.93,12.37-3.89,18.59,0,.77,1.55,2.26,1.58.94a55.55,55.55,0,0,1,4.24-19.15c2.43-5.94,4.37-12.77,7.81-18.18.33-.51-.67-1.91-1.09-1.32"/><path class="cls-3" d="M49.18,116.8a89.24,89.24,0,0,0-9.94,4c-3.68,1.58-7.72,2.58-11.19,4.61-5.73,3.35-9.39,9.34-8.13,16.13.11.56,1.09,1.21.95.28-1.12-7.18,3.93-12.74,9.86-15.72,3-1.51,6.25-2.61,9.34-3.91s6.42-3.19,9.67-4.28c.39-.13-.18-1.21-.56-1.1"/><path class="cls-3" d="M19.7,139.6c.38,9.75.15,19.22,1.62,28.93.65,4.29,1.35,8.61,2.25,12.85s2.62,9.27,2.81,13.64c0,.69,1.38,2.13,1.47.87.23-3.53-1.18-8-2-11.53-1.06-4.72-2-9.42-2.75-14.2-1.53-10-1.69-19.79-2.25-29.85,0-.58-1.23-1.7-1.19-.71"/><path class="cls-3" d="M30.8,152.52C30.5,157,32,162.44,33,166.76c1.19,5,2.94,10.16,3.85,15.22.13.71,1.42,1.53,1.21.35-.9-4.88-2.57-9.8-3.75-14.64-1.1-4.52-3-10.08-2.79-14.73,0-.37-.7-1.06-.74-.44"/><path class="cls-3" d="M37.67,156.3c-.06,8.06-.47,16.06-.76,24.09-.24,6.69-.86,13.58-.38,20.24,0,.71,1.54,2.12,1.49.88-.64-14.75.87-29.76.79-44.54,0-.56-1.14-1.63-1.14-.67"/><path class="cls-3" d="M36.3,199.84c-.19,7.42-2.17,14.4-3.25,21.7a10.36,10.36,0,0,0,.24,4.7c.58,1.92,2.07,3.34,1.51,5.42s-2.17,3-2.47,5.17a10.88,10.88,0,0,0,.44,4.74c.63,1.94,1.83,5.18,4,5.89,3,1,7.9-.46,11-.87,8.48-1.14,16.9-3.05,25.37-4.07s16.55-2.26,25-1.48A26.16,26.16,0,0,1,109.24,245c3.11,1.83,5.68,3.4,9.2,1.67a54.43,54.43,0,0,0,5.15-3.32c1.57-1,4.06-1.74,5.17-3.32s.08-2.67.2-4.57c.15-2.24,2.26-3.61,2.26-5.95,0-3.09-1.65-6.55-2.06-9.66a76.33,76.33,0,0,1-.37-8.83c-.16-8.16-.23-16.13-1.18-24.25a112.3,112.3,0,0,0-1.82-11.11c-.86-4-.91-8.34-2.28-12.18-.4-1.11-2-1.41-1.41.1,1.14,3.07,1.2,6.87,1.84,10.1.57,2.9,1.13,5.79,1.57,8.71A128,128,0,0,1,127,203.76c-.11,6.37-.74,13,.75,19.26.38,1.59,1.32,3.25,1.32,4.9,0,2-1.65,2.92-2.12,4.64-.51,1.88.68,3.22-.29,4.94s-3.9,2.87-5.56,3.95c-4.19,2.71-6.32,4.26-11,1.63a33.84,33.84,0,0,0-9.28-3.74c-7-1.51-15-.47-22,.48-7.44,1-14.89,2.08-22.31,3.52-3.66.7-7.48,1.23-11.16,1.71-3.25.43-8.28,1.79-10.19-1.34a9.41,9.41,0,0,1-1.16-5.91c.46-2.17,2.46-3.58,2.74-5.86.2-1.66-.42-2.35-1.12-3.77a9.13,9.13,0,0,1-.73-6c1-7.26,3.24-14.2,2.6-21.61,0-.51-1.1-1.64-1.12-.67"/><path class="cls-3" d="M126.76,244.81c.19-1.11-.26-2.5,0-3.53l-1.07-.94c-1.08,6.54.13,14,.26,20.63.13,7.08.49,14.14.36,21.25-.26,14.29.31,28.74-.53,43-.45,7.85-.75,15.71-.79,23.52,0,.56,1.34,2,1.45,1.07,1.58-14,1.76-28.62,1.63-42.69-.14-14.34.4-28.58-.1-42.91-.27-7.59.26-15.85-1.23-23.29-.08-.42-1.12-1.36-1.06-.47.09,1.29.64,2.73.6,4,0,.17.38.61.43.32"/><path class="cls-3" d="M35.51,246c-1,24.82-2.4,49.76-2.48,74.6-.07,24.61,1.18,49,4.92,73.29.94,6.12,1.79,12.23,2.82,18.31.5,2.95,1,5.91,1.49,8.89.55,3.44,1.77,7.16,1.75,10.63,0,.79,1.56,2.31,1.61,1,.19-5.13-1.47-10.85-2.34-15.87-.92-5.37-1.69-10.73-2.71-16.07-2.26-11.92-3.3-24.39-4.35-36.47-2.19-25-1.46-50-.57-75,.51-14.21.71-28.34,1.13-42.57,0-.63-1.23-1.81-1.27-.75"/><path class="cls-3" d="M45,432.76c3.52,1.56,6.88,3,10.77,3.5s7.57-.43,11.19-1.39c1-.28-.08-2.35-.94-2.27-3.77.36-7.16,1.48-11,1.14s-7.06-1.74-10.54-3.26c-1.06-.46-.24,1.94.54,2.28"/><path class="cls-3" d="M21.84,164.73c-.75,6.51-.21,13.48-.24,20-.05,7.17.12,14.28.11,21.41,0,13.3-.41,26.81.35,40.07a185.28,185.28,0,0,1-.4,25.48c-.05.59.4,1.59,1.11,1.58,2.77,0,7.58,1.05,9.73-1.05.59-.57-.57-2.28-1.08-1.79-1.71,1.66-7.08.89-9.44.94L23.1,273c1.18-14.47.32-29.13.13-43.66-.17-13.28-.63-26.64-.51-39.92.08-7.78-.8-16.14,0-23.88.05-.44-.84-1.41-.91-.8"/><path class="cls-3" d="M135.91,128.78c.88,4.7,1,10.17,1.28,14.95.3,4.28.41,8.57.75,12.86.77,9.52,1.09,19.06,1.41,28.64A519.15,519.15,0,0,1,138,242c-.43,5.57-.88,11.2-1.27,16.8-.16,2.33.14,6-.69,8.17-1.17,3.06-6.07,3.26-9,3.91-1.18.27.1,2.81,1.08,2.6,2.45-.55,4.92-.72,7.3-1.79,2.85-1.28,2.72-2.85,2.9-5.8.34-5.61.87-11.23,1.26-16.84.69-9.8,1-19.52,1.64-29.32,1.25-19.19.27-38.95-1.19-58.13-.37-4.73-.78-9.5-1.09-14.23-.37-5.92-.52-12.46-1.83-18.23-.15-.69-1.43-1.55-1.21-.36"/><path class="cls-3" d="M134.32,268.63a132.2,132.2,0,0,1-.57,22.07,78.72,78.72,0,0,1-1.94,11.72c-.8,3.12-2.06,9-5,10.7-.9.52.54,2.94,1.44,2.4,2.93-1.74,4.34-7,5.14-10.12a83.78,83.78,0,0,0,2-11.7,130.74,130.74,0,0,0,.27-24.31c0-.61-1.35-1.82-1.28-.76"/><path class="cls-3" d="M24.75,272.42c-2,7.54-.28,14.77,1.33,22.19.78,3.62,1.52,7.41,2.49,11,.79,2.95,1.21,7.42,3.74,9.49.93.76,1.16-.42.71-1.11-1.68-2.53-2.16-6.2-2.82-9.14-.73-3.21-1.49-6.44-2.2-9.65-1.58-7.15-3.5-14-1.67-21.41.18-.76-1.3-2.48-1.58-1.4"/><path d="M56.8,14.06c3.07-2.32,6.83-3.23,10.48-4.38a36.71,36.71,0,0,1,7.78-2,47.23,47.23,0,0,1,11.07.65c1.86.3,4,1.62,5.78,1.47C93,9.73,94.11,9.1,95.28,9a11.78,11.78,0,0,1,3.92.41c2.75.77,5.57,2.69,7.94,4.22a10.4,10.4,0,0,1,3.6,4.16,24.73,24.73,0,0,1,3.09,7.69c.85,4.26,2,9.78,1.23,14-.69,3.65-1.37,6.35-2.28,9.93-.3,1.19-2.14,6.37-2.42,7.56-1.74-1.13-4-6.9-5.23-8.63a36.2,36.2,0,0,1-5.33-12c-1.8-7-3.58-14.15-5.16-21.21-1.76-.75-6.54,9.07-7.46,10.65C85,29.46,82.66,33,80.31,36.52,77.5,40.76,73.58,45.94,69,48.4c.21-.75.7-3.13.12-3.64-1-.9-4.24,1.46-5.58,1.64.08-.51.2-1,.25-1.55-2.87.66-5.64,3.1-8.34,4.39-1.59.76-3.27,1.17-4.93,1.77a9.46,9.46,0,0,0-6.34,7.46c-1.33-3-4.81-9.21-4.1-12.43,1-4.56.11-11.39,1.79-15.73,2-5.14,5-8.64,8.25-13.09,1.62-2.24,4-2.78,6-4.77.71-.75,8.18-4.36,9-4.85"/><path class="cls-3" d="M76.81,271.87c0-1.6,1.62-3,2.93-2.08a23.51,23.51,0,0,1,.81,3,38.41,38.41,0,0,1,.57,3.85c.37,3.62.67,7.27.95,10.9.42,5.27,1,10.5,1.58,15.76,1.3,12.29,1.74,24.56,3.12,36.81.27,2.35.52,4.76.73,7.1.29,3.11-.17,6.14.11,9.2.56,6.23,1.34,12.41,1.81,18.65,1,12.61,1.92,25.16,2.65,37.77.22,3.67.43,7.33.67,11,.17,2.52-.64,6.7,1.51,8.64s6.84.45,9.38.13c3.59-.45,7.73-1.45,11.34-1.26.31,0,.4-.37.39-.6-.13-3.57,1.32-8,2.07-11.5.69-3.21,1-6.48,1.62-9.7,1.27-6.82,2.56-13.65,3.48-20.52.89-6.64,1.63-13.34,2.44-20,.44-3.58.55-7.31.88-10.91.31-3.33-.33-7.2.54-10.44.22-.8-1.35-2.62-1.67-1.48-1.2,4.32-.61,9.73-1,14.23-.41,4.87-1.14,9.76-1.49,14.65-.7,9.69-2.58,19.4-4.28,29-.84,4.71-1.48,9.46-2.47,14.14-.47,2.16-.86,4.37-1.18,6.56-.52,3.5-.06,4-3.58,4.56-2.42.35-4.8.71-7.22,1-1.9.23-5.51,1.21-7.26.71s-1.64-.42-1.74-2.59c0-1.19,0-2.4-.09-3.6-.08-2.14-.16-4.3-.28-6.45-1-17.74-2.62-35.41-4-53.1-1.25-16.31-2.1-32.66-3.92-49-1.11-9.9-1.56-19.8-2.5-29.68-.51-5.27-.58-10.83-2.3-15.87-1.43-4.18-6-5.05-6,.35,0,.64,1.29,1.89,1.32.78"/><path class="cls-3" d="M80.38,274.58c0,2.43-.52,5.16-.72,7.57-.22,2.79,0,5.52-.33,8.32q-.84,7.14-1.3,14.3c-.62,9.6-1.13,19.11-1.94,28.67-.89,10.53-1.55,21.1-2.33,31.6-.17,2.28-.42,4.46-.67,6.73,0,.47.45,1,.38,1.38.28-1.79-.42-.62-.48-.19-.27,1.69-.15,3.51-.35,5.22-.65,5.73-1,11.49-1.43,17.2-.27,3.36-.42,6.73-.77,10.05-.14,1.34-.52,2.63-.66,4s.28,2.7.16,3.82c.14-1.27-.42-.08-.45.2-.11,1.05-.09,2.17-.21,3.21s-.5,2.32-.57,3.58c-.18,3.54-1.14,7.28-.72,10.85.16,1.43,3.27,4.2,3,1.77-.33-3,.57-6.58.82-9.59.24-2.84.78-5.53,1.06-8.38a6.16,6.16,0,0,0-.08-1.62c0-1.51.36-3,.54-4.47.27-2.26.34-4.5.51-6.77.77-10.47,2.28-22.07,2.76-31.66s1.41-19.2,2-28.8c.64-10,2-20,2.25-29.93.17-5.87.47-11.73.84-17.63s1.28-12,1.17-17.92c0-1.23-2.53-3.58-2.51-1.49"/><path d="M96.29,431.87c1.75-.75,4.06-.63,5.86-.93,5.1-.87,10.27-2.79,14.8.83,5,4,6.82,11.25,9.49,16.78,1.58,3.27,3.91,6.06,6,9,2.59,3.75,4.65,8.22,3.85,12.85-.31,1.77-.37,2.75-2,3.53-3,1.37-8.1.82-11.31.7a49.74,49.74,0,0,1-8.49-1.2c-2.37-.51-5.36-.79-7.57-1.81-3-1.36-4.12-5.24-5.44-8-1.24-2.64-3.07-4.32-5-6.42-1.3-1.42-3.44-2.94-4.36-4.59-1.68-3-1.07-8.25-.45-11.46.56-2.87,1.28-7.09,3.91-8.87a5.3,5.3,0,0,1,.78-.42"/><path class="cls-12" d="M77.58,143.27c0-.07,0-.13,0-.19s-.29-.45-.36-.2c-.73,2.61.15,6.61.24,9.28.26,7.66.6,15.32,1,23,.46,9.19,1,18.37,1.6,27.54.73,10.57,2.3,21.21,1.8,31.81,0,.27.52.78.55.32.67-10.13-1-20.37-1.67-30.48-.65-9.18-1.18-18.36-1.66-27.55-.57-11.09-.57-23-1.82-33.72,0,.17.39.51.36.22"/><g class="cls-13"><g class="cls-14"><path class="cls-15" d="M54.73,17.88c-6.36,6.72-11,15.37-11.65,24.72,0,.75,1.5,3.06,1.88,1.66a46.94,46.94,0,0,1,8.32-16.49c.47-.62-.8-2.41-1.38-1.68A53.05,53.05,0,0,0,43.08,42.6L45,44.26c1.78-9.3,4.9-17.44,11.2-24.65.52-.59-.76-2.44-1.43-1.73"/></g></g><g class="cls-13"><g class="cls-16"><path class="cls-15" d="M54.59,19l-3.51,8.12c-.21.48.7,1.54.89,1.07L55.3,19.9c.15-.37-.54-1.26-.71-.86"/></g></g><g class="cls-13"><g class="cls-17"><path class="cls-3" d="M57.34,21.55Q56,25,54.71,28.35c-.2.53.69,1.7,1,1,.87-2.28,1.73-4.56,2.6-6.83.16-.43-.75-1.43-.93-1"/></g></g><g class="cls-13"><g class="cls-18"><path class="cls-15" d="M62.4,15.92a113.37,113.37,0,0,1-6.16,15.72c-.3.62.88,2,1.13,1.38a156.71,156.71,0,0,0,5.81-16.41c.11-.37-.61-1.22-.78-.69"/></g></g><g class="cls-13"><g class="cls-19"><path class="cls-15" d="M67.06,22a62.48,62.48,0,0,1-4.91,8.11c-.45.63.85,2.34,1.33,1.62a64.07,64.07,0,0,0,4.71-8.35c.27-.58-.81-2-1.13-1.38"/></g></g><g class="cls-13"><g class="cls-20"><path class="cls-15" d="M73.17,19.69a55.31,55.31,0,0,1-5.94,8.47c-.46.53.72,2.15,1.23,1.5a56.89,56.89,0,0,0,5.67-8.8c.25-.48-.65-1.71-1-1.17"/></g></g></g></g></g></svg>